<svg xmlns="http://www.w3.org/2000/svg" aria-hidden="true" style="position:absolute;width:0;height:0;overflow:hidden"><defs><symbol id="icon-Group" viewBox="0 0 30 32"><path fill="#212121" d="m29.9 22.1-8.5-8.5 1-4.6.7.1a2.2 2.2 0 1 0-2-1.4l-5 .6-8-8.1a.5.5 0 0 0-.4-.2c-.2 0-.3 0-.4.2L5.8 1.7c-.2.2-.2.5 0 .7l.8.8A15 15 0 0 0 9.3 21v6.7H2.7a2.7 2.7 0 0 0-2.6 2.7v1c0 .4.2.6.5.6h24.5c.3 0 .6-.2.6-.5v-1.1c0-1.5-1.2-2.7-2.7-2.7h-6.4V25a15 15 0 0 0 10-1.5l.9.9.4.1.3-.1 1.6-1.5c.2-.3.2-.6 0-.8zM22.4 6.2a1 1 0 1 1 .7 1.9 1 1 0 0 1-.7-1.9zM21 9.7l-.6 3-1.2-1.2 1.8-1.8zm-.6-.9-2 2-1.4-1.5 3.4-.5zm2.6 20c.9 0 1.6.7 1.6 1.6v.5H1.2v-.5c0-.9.7-1.6 1.6-1.6h20.3zm-7.5-2.1v1h-5.3v-1h5.3zm-5.3-1.1v-4c0-1.3 1.2-2.4 2.7-2.4s2.6 1 2.6 2.3v4.1h-5.3zm6.4-1.7v-2.4c0-1.8-1.7-3.4-3.7-3.4-1.4 0-2.6.7-3.3 1.8-4-4.3-5-10.6-2.3-15.9L26 22.7a13.8 13.8 0 0 1-9.3 1.2zm11.3-.7L7 2l.7-.7 8 8 13 13.2-.7.7z" style="fill:var(--color1, #212121)"/><path fill="#2196f3" d="M13 20.3a1.6 1.6 0 1 0 0 3.2 1.6 1.6 0 1 0 0-3.2zm.3 2-.3.1a.5.5 0 0 1 0-1 .5.5 0 0 1 .3.8z" style="fill:var(--color2, #2196f3)"/></symbol><symbol id="icon-diagram-1" viewBox="0 0 36 32"><path fill="#2196f3" d="M16.8 15h1v4.8h-1V15zM21 17.1h1v2.7h-1V17zM12.5 18.7h1v1h-1v-1zM9.3 18.2h1v1.6h-1v-1.6z" style="fill:var(--color2, #2196f3)"/><path fill="#212121" d="M3.4 28.3H29c.9 0 1.6-.7 1.6-1.6v-2.1c0-1-.7-1.6-1.6-1.6h-.5V9.7l3-2.9a1.6 1.6 0 1 0-.7-.8l-2.3 2.2V7c0-1-.7-1.6-1.6-1.6H5.6C4.6 5.4 4 6 4 7v16h-.6c-.9 0-1.6.7-1.6 1.6v2c0 1 .7 1.7 1.6 1.7zM32.2 4.8a.5.5 0 1 1 0 1.1.5.5 0 0 1 0-1zM5 7c0-.3.3-.6.6-.6h21.3c.3 0 .5.3.5.6v2.2l-1 1V8c0-.3-.3-.5-.6-.5H6.6c-.3 0-.5.2-.5.5v13.4c0 .3.2.5.5.5h19.2c.3 0 .5-.2.5-.5v-9.7l1.1-1V23H5V7zm4.8 6.9a1.6 1.6 0 1 0 1.1 2.7l1.9 1 .6-.1 4-4.5 3.8 3 .7-.1 3.4-3.2v8.1H7.2V8.6h18v2.6l-3.7 3.6-3.9-3a.5.5 0 0 0-.7.1l-4 4.5-1.5-.7v-.2c0-.9-.7-1.6-1.6-1.6zm.6 1.6a.5.5 0 1 1-1.1 0 .5.5 0 0 1 1 0zm3.2 8.5h5.3v.6c0 .3-.3.5-.5.5H14a.5.5 0 0 1-.5-.5V24zm-10.7.6c0-.3.2-.6.5-.6h9v.6c0 .8.8 1.6 1.7 1.6h4.3c.8 0 1.6-.8 1.6-1.6V24h9c.3 0 .5.3.5.6v2c0 .4-.2.6-.5.6H3.4a.5.5 0 0 1-.5-.5v-2.1z" style="fill:var(--color1, #212121)"/></symbol><symbol id="icon-clock-1" viewBox="0 0 32 32"><path fill="#212121" d="M31.3 15.3a15.3 15.3 0 1 0-19.8 14.6h.4l.2-.4 4-12.3a2 2 0 1 0-1-3.6l-5-5.1a.6.6 0 0 0-1 .9l5.2 5c-.4.9-.2 1.8.5 2.4l-3.7 11.7a14 14 0 1 1 10.6-.4l-.4-1.9a.6.6 0 0 0-1-.3l-3.9 3.4a.6.6 0 0 0 .2 1.1l5 1.6a.6.6 0 0 0 .8-.8l-.4-1.8c5.6-2.4 9.3-8 9.3-14.1zM16 14.7a.6.6 0 1 1 0 1.2.6.6 0 0 1 0-1.2zm2 14.8 2.3-2 .6 3-2.8-1z" style="fill:var(--color1, #212121)"/><path fill="#2196f3" d="M15.4 3.2v1.3a.6.6 0 1 0 1.2 0V3.2a.6.6 0 0 0-1.2 0zM3.9 14.7a.6.6 0 0 0 0 1.2h1.3a.6.6 0 1 0 0-1.2H3.9zM28.1 16a.6.6 0 1 0 0-1.3h-1.3a.6.6 0 0 0 0 1.2h1.3z" style="fill:var(--color2, #2196f3)"/></symbol><symbol id="icon-astronaut-1" viewBox="0 0 32 32"><path fill="#2196f3" d="M32 4.5c0-.2-.3-.3-.5-.3l-1.9-.3-.8-1.7c-.2-.4-.8-.4-1 0L27 3.9l-2 .3a.5.5 0 0 0-.2.9L26 6.4l-.3 2c0 .1 0 .3.2.4.2.2.4.2.6 0l1.7-.8 1.7.9a.5.5 0 0 0 .8-.6l-.3-1.9 1.3-1.3c.2-.2.2-.4.2-.6zM29.5 6c-.1 0-.2.2-.1.4l.1 1.1-1-.5a.5.5 0 0 0-.4 0l-1 .5.1-1-.1-.5-.8-.8 1.1-.2c.2 0 .3-.1.4-.3l.5-1 .5 1c0 .2.2.3.4.3l1.1.2-.8.8zM26.1 20.5h-1v1h1v-1zM26.1 22.7h-1v1h1v-1zM27.2 21.6h-1v1h1v-1zM25 21.6h-1v1h1v-1zM22.4 26.4h-1v1h1v-1zM22.4 28.5h-1v1h1v-1zM23.5 27.5h-1.1v1h1v-1zM21.3 27.5h-1v1h1v-1zM16 24.3h-1v1h1v-1zM16 26.4h-1v1h1v-1zM17 25.3h-1v1h1v-1zM15 25.3h-1.1v1h1v-1zM5.9 6.1H4.8v1h1v-1zM5.9 8.3H4.8v1h1v-1zM7 7.2H5.8v1h1v-1zM4.8 7.2h-1v1h1v-1z" style="fill:var(--color2, #2196f3)"/><path fill="#212121" d="M24.7 14.2c-.3-.4-.7-.7-1.2-.7-.5-.1-1 0-1.3.3l-1.3 1-1.9 1.4-1.3-.6a7 7 0 0 0-2.9-13.2A7 7 0 0 0 9 13H6l-3.2 1.6-2 1a1.8 1.8 0 0 0 1 3.2c.3 0 .6 0 .8-.2L4 18l2.3-1.2h1.3l-5.4 5.4-1.3 1.3a1.7 1.7 0 0 0 0 2.4 1.7 1.7 0 0 0 2.3 0l1.3-1.3 1.8-1.3.9.9-1.8 1.7-1.3 1.4a1.7 1.7 0 0 0 0 2.3 1.7 1.7 0 0 0 2.3 0l3.5-3.4 1-1 5.2-5.7 3.5.5h.2l.1-.1 3.3-2.1 1.3-1.3c.7-.6.8-1.6.2-2.3zM2.1 17.8h-.5a.7.7 0 0 1-.2-1.2l1.3-.7.4 1.3-1 .6zm3.5-1.9-1.5.8-.5-1.2 2-1v1.4zm15.1-6.6c0 1-.2 1.8-.6 2.6l-4.2-2c0-.5-.3-1-.7-1.3l1.4-4.9c2.4.8 4.1 3 4.1 5.6zM9 9.3a5.9 5.9 0 0 1 6.7-5.8L14 8.3a1.9 1.9 0 1 0 0 3.7c.7 0 1.3-.4 1.6-1l3.9 1.8A5.9 5.9 0 0 1 8.9 9.3zm6 .8a.8.8 0 0 1-1.6 0 .8.8 0 0 1 1.6 0zm-12.4 15c-.3.3-.7.3-.9 0a.6.6 0 0 1 0-.8l1-1 .8.9-1 1zM5.7 29c-.3.2-.6.2-.9 0a.6.6 0 0 1 0-.9l1-1 .8 1-1 .9zm3.5-3.5-1.8 1.8-.9-.9 1.8-1.7.1-.2v-.5h-.1l-1.6-1.7h-.1l-.1-.1H6l-1.8 1.4-.9-1 2.4-2.3 4.4 4.3-1 1zm6.8-7a.6.6 0 0 0-.4 0v.1l-4.8 5.2-4.3-4.2 2.8-2.9a.5.5 0 0 0-.4-.9H6.7v-1.6H10a7 7 0 0 0 6.2 2l.1.1 2.5 1 .3 1.6-3-.4zm4 .2-.3-1.6 1.5-1 .9 1.2-2 1.4zm3.8-2.9-.9.8-.9-1.2.8-.6c.2-.2.4-.2.6-.2a.7.7 0 0 1 .4 1.2z" style="fill:var(--color1, #212121)"/><path fill="#212121" d="m13.6 18.5-2.1-2a.5.5 0 0 0-.8 0l-2.1 2a.5.5 0 0 0 0 .8l2.1 2.1a.5.5 0 0 0 .8 0l2.1-2.1a.5.5 0 0 0 0-.8zm-2.5 1.8-1.4-1.4 1.4-1.4 1.4 1.4-1.4 1.4zM17.2 5l-.3 1.1s1.7.5 1.7 2.2h1.1c0-2-1.7-3-2.5-3.2zM19.7 9.3h-1v1h1v-1z" style="fill:var(--color1, #212121)"/></symbol><symbol id="icon-Logo" viewBox="0 0 49 28"><path d="m17.7 3.3 3.3 3h-6v15h15.8v-5.7l3.3 3.1V3.3H17.7zm13 12-9.3-8.8h9.3v8.8zm-3 3.9H17.5V9h.8v9.4h9.6v.7zM20 23.4l-.4.8-.4-.8h-.3l.6 1v.6h.2v-.6l.6-1h-.3zm.5 1.6.1-.3h.6l.2.3h.3l-.7-1.6h-.2L20 25h.3zm.4-1.3.3.7h-.5l.2-.7zm1.5.7v.2l.1.3.4.2c.1 0 .3 0 .4-.2l.1.1h.4l-.3-.2.2-.6h-.3v.4l-.4-.4.1-.1.2-.2v-.4l-.3-.1h-.4v.8a1 1 0 0 0-.2.2zm.8.3-.3.1h-.2v-.5h.1l.4.4zm-.3-.7-.1-.2v-.2h.2l.1.1v.2l-.2.1zm2.7 1 .2-.5h-.3l-.1.3H25l-.2-.1-.1-.4V23.7l.4-.1h.2l.1.3h.3l-.2-.4-.4-.1h-.4l-.2.3-.1.4V24.7l.3.3h.8zm1.7-.3v-1c0-.2-.2-.2-.3-.2l-.3-.1h-.4l-.2.3-.1.5v.5l.3.3h.7l.3-.3zm-.3-1v1l-.3.1-.3-.1-.1-.4v-.6l.4-.1.3.1z"/></symbol><symbol id="icon-Logo-5" viewBox="0 0 49 28"><path d="M25 12.8c-.3-.3-.4-.6-.4-1v-1.3c0-.4.1-.7.3-1s.5-.2 1-.2c.4 0 .7 0 1 .2l.2.8v.4h-.8V10l-.1-.2h-.6l-.1.2v2.5h.2l.2.1h.3v-.3l.1-.3v-.3h.8v.3c0 .3 0 .6-.3.8-.2.2-.5.3-.9.3s-.8 0-1-.3zM28.1 12.8c-.2-.2-.3-.5-.3-1v-1.3c0-.4.1-.7.3-1s.5-.2 1-.2c.4 0 .8 0 1 .3s.2.5.2.9v1.4c0 .4 0 .7-.2.9s-.6.3-1 .3c-.5 0-.8 0-1-.3zm1.3-.3.1-.5V10l-.2-.1c-.1-.1-.1 0-.2 0h-.2l-.2.1v2.6h.2l.2.1h.2l.1-.1zM31.3 9.3h.8l.6 2.6.6-2.6h.8l.1 3.8h-.6v-2.7l-.6 2.7h-.5l-.6-2.7-.1 2.7h-.6V9.3zM35.2 9.3h1.2c.8 0 1.1.4 1.1 1 0 .8-.3 1-1.1 1h-.5v1.8h-.8V9.3zm1 1.6h.3l.2-.1.1-.4V10l-.2-.2h-.7v1.1h.4zM38.7 9.3h.8l1 3.8h-.8l-.2-.9h-.8l-.1.9h-.8l.9-3.8zm.7 2.5-.3-1.6-.3 1.6h.6zM41.1 9.3h.6l1 2.1V9.3h.7v3.8h-.5l-1.1-2.3v2.3h-.7V9.3zM45 11.6l-1-2.3h.8l.5 1.5.5-1.5h.8l-.9 2.3v1.5h-.8v-1.5zM26.2 14.7v.2h-.7v1.5h-.3V15h-.6v-.2h1.6zM28.2 16.4H27.9l-.2-.4h-.9l-.2.4h-.3l.8-1.7h.3l.8 1.7zm-1.3-.6h.7l-.3-.7v-.2.1l-.1.1-.3.7zM29.6 16.3h.1a1 1 0 0 0 .2 0l.1-.1v-.4h-.3v-.2h.6v.7a1.2 1.2 0 0 1-.5.2h-.3l-.4-.1a.8.8 0 0 1-.5-.5v-.7l.2-.2.3-.2a1.3 1.3 0 0 1 .7 0 1.1 1.1 0 0 1 .3 0l.2.1-.1.1H30a.8.8 0 0 0-.3 0 1.1 1.1 0 0 0-.5 0H29c0 .2-.1.2-.2.3v.6l.2.2.2.1h.4zM32 16.2h1v.2h-1.2v-1.7h.3v1.5zM33.8 16.4h-.2v-1.7h.2v1.7zM34.9 14.7l1.2 1.4V14.7h.2v1.7H36l-1.2-1.3v1.3h-.2v-1.7h.1zM38.3 14.7v.2h-1v.6h.8v.2h-.8v.5h1v.2H37v-1.7h1.3zM9.9 4l12 3v10.3l-12-3V4zM9 3.2v11.7l13.6 3.3V6.5L9 3.2z"/><path d="M16.4 23.7 2.8 20.3V8.6l13.6 3.3v11.8z"/><path d="m9.3 4 12 2.8-5.1 4.4-12-3L9.4 4zm-.2-.8L2.8 8.6l13.6 3.3 6.3-5.4L9 3.2zM17.1 23l5.6-4.8L17 17V23z"/></symbol><symbol id="icon-Logo-4" viewBox="0 0 49 28"><path d="m12.5 20.9.2.4-.1.3-.2.3c-.2.2-.5.2-.8.2h-1.3v-2.9h1.3c.3 0 .5 0 .7.2l.2.3v.7l-.5.2c.2 0 .4.1.5.3zm-1.6-.5H11.8l.1-.2v-.1a.3.3 0 0 0 0-.3.6.6 0 0 0-.4-.1h-.6v.7zm1 1.1.1-.2V21l-.1-.1a.6.6 0 0 0-.4-.1h-.6v.7h1zM15.2 22.1l-.7-1.1h-.3V22h-.6v-2.9h1.2c.3 0 .6.1.8.3.2.1.3.3.3.6l-.2.6a1 1 0 0 1-.6.3L16 22h-.7zm-1-1.5h.5c.4 0 .5-.2.5-.4v-.4a.6.6 0 0 0-.5 0h-.5v.8zM18.7 21.5h-1.3l-.2.6h-.7l1.2-2.8h.7l1.2 2.8h-.7l-.2-.6zm-.2-.4-.5-1.2-.4 1.2h.9zM23 22.1h-.6l-1.4-2v2h-.7v-2.9h.7l1.4 2v-2h.6v3zM26.6 21.4c-.1.2-.3.4-.6.5a2 2 0 0 1-.8.2H24v-2.9h1.2c.3 0 .6 0 .8.2.3.1.5.3.6.5l.2.8-.2.7zm-.7 0c.2-.2.3-.5.3-.7l-.3-.7c-.2-.2-.5-.3-.8-.3h-.4v1.9h.4c.3 0 .6 0 .8-.2zM19 3.2S27.3 6 27 10v7S19 14 19 10V3.2zM34.3 15.3c1.5-1 3.3-1.6 5.2-1.7v-2.2c-2.2.8-4 2.1-5.2 4z"/><path d="M33.4 16c1.2-2.4 3.4-4.1 6-5V4.8s-11.5 4-11.3 9.8v9.8l1.3-.6V23a10 10 0 0 1 4-7z"/><path d="M32.3 19.6c0-.7.2-1.3.4-2a9 9 0 0 0-2.5 6l2.2-1.2c-.2-.9-.2-1.8-.1-2.8zM32.7 19.6c0 .9 0 1.8.2 2.6 3.1-1.7 6.7-4.4 6.5-7.6v-.3c-2.2.2-4.3 1.1-6 2.6a9 9 0 0 0-.7 2.7z"/></symbol><symbol id="icon-Logo-3" viewBox="0 0 49 28"><path d="M11.3 9.8c-1.2 0-2 .9-2 1.8 0 1 .8 1.9 2 1.9 1 0 2-.9 2-1.8 0-1-1-1.9-2-1.9zM26.2 9.3c0-1.4-.6-2.7-1.7-3.7S21.9 4 20.4 4c-1.6 0-3 .5-4.2 1.5s-1.7 2.3-1.7 3.7v7.6s11.7-1.2 11.7-7.6zM5.1 19.4c0 1 .5 1.9 1.2 2.6s1.8 1 3 1c1 0 2-.4 2.8-1s1.2-1.6 1.2-2.6V14S5 14.9 5 19.4zm4.1 1-.6-.2a.8.8 0 0 1-.4-.4v-.6c0-.2.1-.3.3-.5l.5-.2h.6c.2 0 .4.2.5.4l.2.5-.1.4-.2.3-.4.2h-.4zM17.5 19.8h-.8v.8h-.4v-2h1.3v.4h-1v.5h.9v.3zm2-.1-.2.5c0 .2-.1.3-.3.3l-.4.2c-.2 0-.3 0-.5-.2l-.3-.3v-1.1l.3-.4h.9c.2.1.3.2.3.4l.1.5zm-.5-.1L19 19l-.3-.2c-.2 0-.3.1-.3.2l-.1.5v.6c0 .2.2.1.4.1l.3-.1.1-.5v-.1zm1.8.5-.1-.2-.3-.1-.4-.1c-.2-.2-.3-.3-.3-.5l.1-.3c.1-.1.1-.2.3-.2a1 1 0 0 1 .7 0l.3.2v.3h-.3l-.1-.2h-.5c-.1 0 0 .1 0 .2v.1l.3.2.5.2.2.4c0 .2 0 .3-.2.4l-.5.2-.5-.1-.3-.3V20h.4c0 .2 0 .3.4.3h.2V20zM23 19h-.7v1.6H22V19h-.6v-.4H23v.4zm1.4.8h-.8v.5h1v.3h-1.4v-2h1.3v.4h-.9v.4h.8v.4zm1.1.1h-.3v.7h-.4v-2h.7c.2 0 .4 0 .5.2l.2.4v.4l-.3.2.4.8H26l-.4-.7zm-.3-.3h.3l.2-.1.1-.2V19l-.3-.1h-.3v.6zm2.5.3v.7h-.5v-2h.8l.4.1.3.3v.3l-.1.5c-.1.2-.3.1-.6.1h-.3zm0-.3h.6V19L28 19h-.3v.6zm2.6.2h-.8v.5h.9v.3H29v-2h1.3v.4h-1v.4h.9v.4zm1.9-.8h-.7v1.6h-.4V19h-.6v-.4h1.7v.4zm1.4.8h-.8v.5h1v.3h-1.4v-2h1.3v.4h-.9v.4h.8v.4zm1.1.1h-.3v.7H34v-2h.7c.2 0 .4 0 .6.2s.1.2.1.4v.4l-.3.2.4.8h-.4l-.4-.7zm-.3-.3h.3l.2-.1.1-.2V19l-.3-.1h-.3v.6zm2.4.5V20l-.4-.1-.3-.1c-.3-.2-.4-.3-.4-.5l.1-.3.3-.2a1 1 0 0 1 .7 0c.2 0 .2.1.3.2l.1.3h-.4l-.1-.2h-.5V19.3l.3.2c.3 0 .4.1.5.2l.2.4c0 .2 0 .3-.2.4l-.5.2-.4-.1-.3-.3-.1-.3h.4c0 .2.1.3.4.3h.2V20z"/></symbol><symbol id="icon-Logo-2" viewBox="0 0 49 28"><path d="M17 23h.1c0 .1-.1.2-.3.2h-.4a1 1 0 0 1-.3 0 .8.8 0 0 1-.5-.4 1 1 0 0 1 0-.7l.2-.3.3-.2a1.2 1.2 0 0 1 .7 0l.3.2v.1h-.2a.6.6 0 0 0-.3-.1h-.4l-.2.1-.2.2v.6l.2.2.2.1h.4a.6.6 0 0 0 .3 0zM20 22.4l-.1.4-.2.2-.3.2h-.8a.9.9 0 0 1-.3-.2l-.2-.2V22l.2-.3.3-.2h.8l.3.2a.8.8 0 0 1 .2.6zm-.3 0v-.3l-.2-.2h-1l-.2.2v.6a.6.6 0 0 0 .4.3h.8l.1-.3v-.3zM22 22.7l.7-1v-.1h.3v1.7h-.3V22l-.6 1h-.2l-.7-1v1.3H21v-1.7h.2l.7 1v.1zM24.4 22.6v.7H24v-1.7H25l.2.1.2.2v.4l-.2.2-.2.1a1 1 0 0 1-.3 0h-.3zm0-.1h.5l.1-.1.1-.2V21.8a.5.5 0 0 0-.4-.1h-.3v.7zM27.8 23.3h-.2l-.3-.5h-.8l-.2.4H26l.8-1.6h.2l.8 1.7zm-1.3-.7h.8L27 22l-.1-.2v.2l-.4.6zM28.9 21.6l1.2 1.3v-1.3h.2v1.7H30c-.1 0 0 0 0 0L28.9 22v1.3h-.2v-1.7h.2zM32.2 22.6v.7h-.3v-.7l-.7-1H31.5l.5.7v.1l.1-.1.4-.7h.4l-.7 1zM21.8 18.8h.3c1.8-.7 3.2-1.7 4.2-3.1s1.5-3 1.5-4.6l-1.9-1.7c.4 1.7.2 3.5-.5 5.2s-2 3.1-3.6 4.2z"/><path d="M21.1 18.7c1.8-1 3.1-2.6 3.9-4.3s.8-3.6.3-5.4l-2.7-2.3a10 10 0 0 1-1.5 12zM30.3 13a8.4 8.4 0 0 1-3.2 4.6l-1.5 1c1.3-.4 2.5-1 3.5-1.8s1.8-1.8 2.3-2.9l-1.1-1z"/><path d="m29.8 12.7-1.5-1.3c0 1.5-.5 3-1.5 4.3s-2.2 2.4-3.8 3.1h1c1.5-.5 2.8-1.4 3.8-2.4s1.7-2.3 2-3.7zM21.4 5.7 19.5 4c-1.7.5-3 1.5-4 2.8s-1.6 2.8-1.6 4.3c0 1.7.6 3.4 1.8 4.7s3 2.3 4.8 2.7c1.7-1.8 2.7-4 2.9-6.3s-.6-4.7-2-6.6zM34.1 12.5c0-2-.9-4-2.6-5.4s-3.8-2.3-6.2-2.3c-1 0-2.1.2-3.1.5l11.3 10c.4-1 .6-1.9.6-2.8z"/></symbol><symbol id="icon-Logo-1" viewBox="0 0 49 28"><path d="M23.4 2.8H22.7a11.8 11.8 0 0 0-.6 0c-1.7 0-3.4.5-4.9 1.2l-.2.1v10.4l.5-.2a17.7 17.7 0 0 1 5-.9v1.4h-.4a15.1 15.1 0 0 0-6.4 1.8V3.3a13.8 13.8 0 0 1 7-1.9h.2a14.5 14.5 0 0 1 2.4.3V3l-1.6-.2h-.4zM25.7 4h1a14.6 14.6 0 0 0 7-1.7v13a13.9 13.9 0 0 1-9.6 1.6V3.9a11.4 11.4 0 0 0 1.6.2zm6.7.1-.5.2-1.3.4a16 16 0 0 1-4.8.5h-.4v10.6h1.3a12.5 12.5 0 0 0 5.5-1.2l.2-.1V4.2zM16.7 21.1a.7.7 0 0 0-.5-.2h-.4l-.2.2-.1.2v2.1c-.1.1 0 .2 0 .4l.2.2.2.1h.5a.7.7 0 0 0 .5-.7v-.2h-.5v.4h-.2v.1H16l-.1-.3v-1.9a.2.2 0 0 1 .3-.2s.1.1.2.1v.4h.5v-.1a.8.8 0 0 0-.2-.6zM19.4 21a.8.8 0 0 0-.5-.1.8.8 0 0 0-.5.2l-.2.2v2.4l.2.3.2.1a.8.8 0 0 0 .6 0 .8.8 0 0 0 .4-.4v-2.4l-.2-.2zm-.2 2.4a.3.3 0 0 1 0 .2.3.3 0 0 1-.5 0 .3.3 0 0 1-.1-.2v-1.7a.3.3 0 0 1 0-.3.3.3 0 0 1 .5 0 .3.3 0 0 1 .1.3v1.7zM23 24.1V21h-.4l-.6 1.7-.6-1.7H21v3.2h.4v-2l.5 1.5h.2l.5-1.4v2h.4zM25.6 21.1l-.2-.1a1 1 0 0 0-.3 0h-.7V24h.4V23h.3l.4-.1.2-.3.1-.2a2.4 2.4 0 0 0 0-.9s0-.2-.2-.3zm-.2 1v.2l-.1.1h-.5v-1h.5v.1l.1.2v.4zM27.8 21h-.4l-.7 3.1h.5l.1-.7h.7v.7h.5l-.7-3.2zm-.4 2 .2-1.2.3 1.2h-.5zM30.8 22.8 30 21h-.5v3.2h.5v-2l.7 2h.4V21h-.4v2zM33.6 21l-.4 1.2-.4-1.3h-.5l.7 1.9V24h.4v-1.3l.7-1.9h-.5zM15.4 25h.2v.7h.2V25h.2-.6zM17.3 25l-.3.7h.1v-.2h.4v.2h.2l-.3-.8h-.1zm0 .4V25l.1.3h-.2zM19 25.4h.3l-.2.1H19l-.1-.2c0-.2 0-.3.2-.3s.1.1.2.1h.1c0-.1-.1-.2-.3-.2h-.3v.7a.4.4 0 0 0 .3 0h.3v-.3h-.3zM21 25h-.2v.7h.5v-.2H21V25zM22.5 25h-.1v.7h.1v-.8zM24.1 25.4l-.3-.5h-.2v.8h.2v-.5l.3.5h.1v-.8h-.1v.5zM25.5 25.3h.4v-.1h-.4V25h.4-.6v.7h.6v-.2h-.4v-.2zM28.9 25.2h-.3v-.3h-.2v.8h.2v-.4h.3v.4h.1v-.8H29v.3zM30.3 25.3h.4v-.1h-.4V25h.4-.5v.7h.5v-.2h-.4v-.2zM32.2 25.3c.1 0 .2 0 .2-.2s0-.1 0-.1h-.6v.7h.1v-.4h.2v.1l.2.2h.2l-.1-.1-.2-.2zm-.1 0h-.2V25H32.2v.1a.1.1 0 0 1 0 .1h-.1zM33.7 25.3h.3v-.1h-.3V25h.4-.6v.7h.6v-.2h-.4v-.2z"/></symbol><symbol id="icon-smartphone" viewBox="0 0 18 28"><path d="M14.9 0H2.6A2.6 2.6 0 0 0 0 2.6v22.8C0 26.8 1.2 28 2.6 28H15c1.4 0 2.6-1.2 2.6-2.6V2.6c0-1.4-1.2-2.6-2.6-2.6zM2.6 1.8H15c.5 0 .8.3.8.8V21h-14V2.6c0-.5.4-.9 1-.9zM15 26.1H2.6a.9.9 0 0 1-.9-.8v-2.6h14v2.6c0 .5-.3.9-.8.9z"/><path d="M4.1 24c.4.4.4.9 0 1.2s-.9.3-1.2 0c-.4-.3-.4-.8 0-1.2s.9-.3 1.2 0z"/></symbol><symbol id="icon-envelope" viewBox="0 0 37 28"><path d="M33.8 0H3.5C1.5 0 0 1.6 0 3.5v21c0 2 1.6 3.5 3.5 3.5h30.3c2 0 3.5-1.6 3.5-3.5v-21c0-2-1.5-3.5-3.5-3.5zm0 2.3.5.1L18.7 16 3 2.4h30.7zm0 23.4H3.5c-.6 0-1.2-.6-1.2-1.2V4.9L18 18.4c.2.2.5.3.8.3s.5-.1.7-.3L35 4.9v19.6c0 .6-.5 1.2-1.2 1.2z"/></symbol><symbol id="icon-instagram" viewBox="0 0 24 28"><path d="M16 14a4 4 0 0 0-8 0 4 4 0 0 0 8 0zm2.2 0a6.1 6.1 0 1 1-12.3 0 6.1 6.1 0 0 1 12.3 0zm1.6-6.4c0 .8-.6 1.4-1.4 1.4S17 8.4 17 7.6s.6-1.4 1.4-1.4 1.4.6 1.4 1.4zM12 4.2c-1.8 0-5.5-.2-7 .4-.6.3-1 .5-1.5 1s-.6.8-.9 1.3c-.6 1.6-.4 5.3-.4 7.1s-.2 5.5.4 7c.3.6.5 1 1 1.5s.8.6 1.3.9c1.6.6 5.3.4 7.1.4s5.5.2 7-.4c.6-.3 1-.5 1.5-1s.6-.8.9-1.3c.6-1.6.4-5.4.4-7.1s.2-5.5-.4-7c-.3-.6-.5-1-1-1.5s-.8-.6-1.3-.9c-1.6-.6-5.4-.4-7.1-.4zM24 14v5c-.2 1.9-.6 3.6-2 5s-3.1 1.8-5 2H7c-1.9-.2-3.6-.6-5-2s-1.8-3.1-2-5V9c.2-1.9.6-3.6 2-5s3.1-1.8 5-2h10c1.9.2 3.6.6 5 2s1.8 3.1 2 5v5z"/></symbol><symbol id="icon-facebook" viewBox="0 0 32 32"><path d="M19 6h5V0h-5a7 7 0 0 0-7 7v3H8v6h4v16h6V16h5l1-6h-6V7c0-.5.5-1 1-1z"/></symbol><symbol id="icon-twitter" viewBox="0 0 32 32"><path d="M32 7a13 13 0 0 1-3.8 1.1 6.6 6.6 0 0 0 3-3.6c-1.4.7-2.8 1.3-4.3 1.6a6.6 6.6 0 0 0-11.1 6A18.6 18.6 0 0 1 2.2 5a6.6 6.6 0 0 0 2 8.9c-1 0-2-.4-3-.9v.1c0 3.2 2.4 5.9 5.4 6.5a6.6 6.6 0 0 1-3 0 6.6 6.6 0 0 0 6.1 4.6A13.2 13.2 0 0 1 0 27.1a18.6 18.6 0 0 0 28.7-16.6C30 9.5 31.1 8.4 32 7z"/></symbol><symbol id="icon-linkedin2" viewBox="0 0 32 32"><path d="M12 12h5.5v2.8h.1a6.1 6.1 0 0 1 5.5-2.8c5.8 0 6.9 3.6 6.9 8.4V30h-5.8v-8.5c0-2 0-4.7-3-4.7s-3.4 2.2-3.4 4.5V30H12V12zM2 12h6v18H2V12zM8 7a3 3 0 1 1-6 0 3 3 0 0 1 6 0z"/></symbol><symbol id="icon-close" viewBox="0 0 32 32"><path d="M26.667 7.303l-1.97-1.97-7.808 7.808-7.808-7.808-1.97 1.97 7.808 7.808-7.808 7.808 1.97 1.97 7.808-7.808 7.808 7.808 1.97-1.97-7.808-7.808 7.808-7.808z"></path>
</symbol><symbol id="icon-email-black" viewBox="0 0 32 32"><path d="M26.667 5.333h-21.333c-1.467 0-2.653 1.2-2.653 2.667l-0.013 16c0 1.467 1.2 2.667 2.667 2.667h21.333c1.467 0 2.667-1.2 2.667-2.667v-16c0-1.467-1.2-2.667-2.667-2.667zM26.133 11l-9.427 5.893c-0.427 0.267-0.987 0.267-1.413 0l-9.427-5.893c-0.333-0.213-0.533-0.573-0.533-0.96 0-0.893 0.973-1.427 1.733-0.96l8.933 5.587 8.933-5.587c0.76-0.467 1.733 0.067 1.733 0.96 0 0.387-0.2 0.747-0.533 0.96z"></path>
</symbol><symbol id="icon-person-black" viewBox="0 0 32 32"><path d="M16 16c2.947 0 5.333-2.387 5.333-5.333s-2.387-5.333-5.333-5.333c-2.947 0-5.333 2.387-5.333 5.333s2.387 5.333 5.333 5.333zM16 18.667c-3.56 0-10.667 1.787-10.667 5.333v1.333c0 0.733 0.6 1.333 1.333 1.333h18.667c0.733 0 1.333-0.6 1.333-1.333v-1.333c0-3.547-7.107-5.333-10.667-5.333z"></path></symbol> <symbol id="icon-phone-black" viewBox="0 0 32 32"><path d="M24.882 19.773l-3.268-0.373c-0.785-0.090-1.557 0.18-2.11 0.733l-2.367 2.367c-3.641-1.853-6.626-4.825-8.478-8.478l2.38-2.38c0.553-0.553 0.823-1.325 0.733-2.11l-0.373-3.242c-0.154-1.299-1.248-2.277-2.56-2.277h-2.226c-1.454 0-2.663 1.209-2.573 2.663 0.682 10.987 9.469 19.761 20.443 20.443 1.454 0.090 2.663-1.119 2.663-2.573v-2.226c0.013-1.3-0.965-2.393-2.264-2.547z"></path></symbol><symbol id="icon-Vector" viewBox="0 0 34 32"><path d="M30.341 3.556v24.889h-26.548v-24.889h26.548zM30.341 0h-26.548c-2.086 0-3.793 1.6-3.793 3.556v24.889c0 1.956 1.707 3.556 3.793 3.556h26.548c2.086 0 3.793-1.6 3.793-3.556v-24.889c0-1.956-1.707-3.556-3.793-3.556z"></path>
</symbol><symbol id="icon-checkbox-checked" viewBox="0 0 32 32"><path d="M28 0h-24c-2.2 0-4 1.8-4 4v24c0 2.2 1.8 4 4 4h24c2.2 0 4-1.8 4-4v-24c0-2.2-1.8-4-4-4zM14 24.828l-7.414-7.414 2.828-2.828 4.586 4.586 9.586-9.586 2.828 2.828-12.414 12.414z"></path></symbol><symbol id="icon-icon-send" viewBox="0 0 32 32"><path fill="#fff" style="fill: var(--color1, #fff)" d="M32 0l-32 18 10.227 3.788 15.773-14.788-11.998 16.186 0.010 0.004-0.012-0.004v8.814l5.735-6.691 7.265 2.691 5-28z"></path></symbol></defs></svg>
