<svg aria-hidden="true" style="position: absolute; width: 0; height: 0; overflow: hidden;" version="1.1" xmlns="http://www.w3.org/2000/svg" xmlns:xlink="http://www.w3.org/1999/xlink">
<defs>
<symbol id="icon-Group" viewBox="0 0 30 32">
<path fill="#212121" style="fill: var(--color1, #212121)" d="M29.859 22.098l-8.443-8.505 0.937-4.615c0.242 0.094 0.499 0.144 0.758 0.146h0.006c1.192 0.014 2.17-0.941 2.184-2.133s-0.941-2.17-2.133-2.184c-1.192-0.014-2.17 0.941-2.184 2.133-0.003 0.255 0.039 0.509 0.125 0.749l-4.96 0.605-8.091-8.133c-0.099-0.101-0.235-0.159-0.377-0.16-0.14 0.001-0.274 0.056-0.373 0.155l-1.513 1.504c-0.208 0.208-0.208 0.546 0 0.754l0.814 0.826c-3.153 5.798-2.129 12.978 2.519 17.663 0.043 0.041 0.092 0.074 0.146 0.098-0.034 0.18-0.051 0.364-0.052 0.547v6.187h-6.4c-1.472 0.002-2.665 1.195-2.667 2.667v1.067c0 0.295 0.239 0.533 0.533 0.533h24.533c0.295 0 0.533-0.239 0.533-0.533v-1.067c-0.002-1.472-1.195-2.665-2.667-2.667h-6.4v-2.742c1.003 0.21 2.024 0.317 3.049 0.32 2.458-0.003 4.877-0.615 7.040-1.783l0.818 0.823c0.099 0.101 0.235 0.159 0.377 0.16 0.14-0.001 0.274-0.056 0.373-0.155l1.513-1.504c0.208-0.208 0.208-0.546 0-0.754zM22.366 6.233c0.418-0.415 1.093-0.414 1.508 0.004s0.414 1.093-0.004 1.508c-0.2 0.199-0.47 0.31-0.752 0.31h-0.003c-0.589-0.003-1.064-0.483-1.061-1.072 0.002-0.282 0.115-0.552 0.314-0.751h-0.002zM21.11 9.738l-0.598 2.946-1.175-1.182 1.774-1.763zM20.504 8.836l-1.92 1.909-1.485-1.493 3.405-0.415zM23.090 28.8c0.884 0 1.6 0.716 1.6 1.6v0.533h-23.467v-0.533c0-0.884 0.716-1.6 1.6-1.6h20.267zM15.623 26.667v1.067h-5.333v-1.067h5.333zM10.29 25.6v-4.053c0-1.294 1.196-2.347 2.667-2.347s2.667 1.053 2.667 2.347v4.053h-5.333zM16.69 23.904v-2.357c0-1.882-1.675-3.413-3.733-3.413-1.331-0.020-2.576 0.657-3.281 1.786-4.058-4.274-4.971-10.645-2.279-15.887l18.602 18.708c-2.872 1.461-6.165 1.873-9.309 1.163zM27.979 23.22l-21.057-21.181 0.755-0.752 7.935 7.98c0.004 0 0.006 0.007 0.010 0.010l13.115 13.191-0.757 0.752z"></path>
<path fill="#2196f3" style="fill: var(--color2, #2196f3)" d="M12.961 20.267h-0.005c-0.884-0.001-1.601 0.714-1.602 1.598s0.714 1.601 1.598 1.602h0.005c0.884 0.001 1.601-0.714 1.602-1.598s-0.714-1.601-1.598-1.602zM13.335 22.245c-0.1 0.1-0.236 0.156-0.378 0.155-0.295-0.002-0.532-0.242-0.531-0.536 0.001-0.141 0.057-0.276 0.157-0.375s0.233-0.154 0.373-0.155c0.295 0.002 0.532 0.241 0.53 0.536-0.001 0.141-0.057 0.276-0.157 0.375h0.005z"></path>
</symbol>
<symbol id="icon-diagram-1" viewBox="0 0 36 32">
<path fill="#2196f3" style="fill: var(--color2, #2196f3)" d="M16.754 14.965h1.066v4.798h-1.066v-4.797z"></path>
<path fill="#2196f3" style="fill: var(--color2, #2196f3)" d="M21.018 17.097h1.066v2.665h-1.066v-2.665z"></path>
<path fill="#2196f3" style="fill: var(--color2, #2196f3)" d="M12.49 18.696h1.066v1.066h-1.066v-1.066z"></path>
<path fill="#2196f3" style="fill: var(--color2, #2196f3)" d="M9.291 18.163h1.066v1.599h-1.066v-1.599z"></path>
<path fill="#212121" style="fill: var(--color1, #212121)" d="M3.428 28.291h25.587c0.883 0 1.599-0.716 1.599-1.599v-2.132c0-0.883-0.716-1.599-1.599-1.599h-0.533v-13.293l3.028-2.868c0.703 0.346 1.553 0.136 2.013-0.499s0.396-1.508-0.153-2.068-1.42-0.644-2.065-0.198c-0.644 0.446-0.873 1.292-0.542 2.002l-2.281 2.163v-1.23c0-0.883-0.716-1.599-1.599-1.599h-21.322c-0.883 0-1.599 0.716-1.599 1.599v15.992h-0.533c-0.883 0-1.599 0.716-1.599 1.599v2.132c0 0.883 0.716 1.599 1.599 1.599zM32.213 4.837c0.294 0 0.533 0.239 0.533 0.533s-0.239 0.533-0.533 0.533c-0.294 0-0.533-0.239-0.533-0.533s0.239-0.533 0.533-0.533zM5.027 6.969c0-0.294 0.239-0.533 0.533-0.533h21.322c0.294 0 0.533 0.239 0.533 0.533v2.239l-1.066 1.013v-2.186c0-0.294-0.239-0.533-0.533-0.533h-19.19c-0.294 0-0.533 0.239-0.533 0.533v13.326c0 0.294 0.239 0.533 0.533 0.533h19.19c0.294 0 0.533-0.239 0.533-0.533v-9.674l1.066-1.010v12.284h-22.388v-15.992zM9.824 13.899c-0.721-0.002-1.354 0.478-1.546 1.174s0.105 1.433 0.725 1.801c0.62 0.368 1.41 0.276 1.928-0.226l1.853 0.93c0.215 0.108 0.476 0.057 0.636-0.123l3.939-4.431 3.872 2.901c0.208 0.156 0.498 0.139 0.686-0.039l3.365-3.188v8.131h-18.124v-12.26h18.124v2.66l-3.771 3.572-3.904-2.927c-0.222-0.166-0.534-0.135-0.718 0.072l-3.993 4.493-1.493-0.746c0.011-0.064 0.018-0.129 0.020-0.193 0-0.883-0.716-1.599-1.599-1.599zM10.357 15.498c0 0.294-0.239 0.533-0.533 0.533s-0.533-0.239-0.533-0.533c0-0.294 0.239-0.533 0.533-0.533s0.533 0.239 0.533 0.533zM13.556 24.027h5.331v0.533c0 0.294-0.239 0.533-0.533 0.533h-4.264c-0.294 0-0.533-0.239-0.533-0.533v-0.533zM2.895 24.56c0-0.294 0.239-0.533 0.533-0.533h9.062v0.533c0 0.883 0.716 1.599 1.599 1.599h4.264c0.883 0 1.599-0.716 1.599-1.599v-0.533h9.062c0.294 0 0.533 0.239 0.533 0.533v2.132c0 0.294-0.239 0.533-0.533 0.533h-25.587c-0.294 0-0.533-0.239-0.533-0.533v-2.132z"></path>
</symbol>
<symbol id="icon-clock-1" viewBox="0 0 32 32">
<path fill="#212121" style="fill: var(--color1, #212121)" d="M31.297 15.301c-0.002-8.452-6.855-15.303-15.308-15.301s-15.303 6.855-15.301 15.308c0.001 6.658 4.307 12.551 10.649 14.576 0.061 0.019 0.124 0.029 0.187 0.029 0.121-0 0.239-0.032 0.342-0.094 0.135-0.080 0.236-0.207 0.283-0.356l3.865-12.25c1.057-0.005 1.909-0.866 1.903-1.923s-0.866-1.909-1.923-1.903c-0.284 0.001-0.565 0.067-0.82 0.191l-5.106-5.107c-0.253-0.245-0.657-0.238-0.902 0.016-0.239 0.247-0.239 0.639 0 0.886l5.103 5.109c-0.392 0.799-0.168 1.764 0.536 2.309l-3.683 11.673c-7.278-2.681-11.004-10.754-8.323-18.032s10.754-11.004 18.032-8.323 11.004 10.754 8.323 18.032c-1.31 3.556-4.001 6.431-7.462 7.973l-0.398-1.874c-0.073-0.344-0.411-0.565-0.756-0.492-0.109 0.023-0.209 0.074-0.292 0.148l-3.837 3.426c-0.263 0.234-0.287 0.637-0.052 0.9 0.076 0.085 0.174 0.149 0.283 0.184l4.899 1.563c0.335 0.108 0.694-0.077 0.802-0.412 0.034-0.106 0.040-0.219 0.017-0.328l-0.391-1.839c5.664-2.388 9.342-7.942 9.329-14.089v0zM15.992 14.664c0.352 0 0.638 0.286 0.638 0.638s-0.286 0.638-0.638 0.638c-0.352 0-0.638-0.285-0.638-0.638s0.285-0.638 0.638-0.638zM18.093 29.528l2.184-1.948 0.603 2.84-2.787-0.892z"></path>
<path fill="#2196f3" style="fill: var(--color2, #2196f3)" d="M15.354 3.185v1.275c0 0.352 0.285 0.638 0.638 0.638s0.638-0.285 0.638-0.638v-1.275c0-0.352-0.286-0.638-0.638-0.638s-0.638 0.286-0.638 0.638z"></path>
<path fill="#2196f3" style="fill: var(--color2, #2196f3)" d="M3.876 14.664c-0.352 0-0.638 0.286-0.638 0.638s0.285 0.638 0.638 0.638h1.275c0.352 0 0.638-0.285 0.638-0.638s-0.285-0.638-0.638-0.638h-1.275z"></path>
<path fill="#2196f3" style="fill: var(--color2, #2196f3)" d="M28.108 15.939c0.352 0 0.638-0.285 0.638-0.638s-0.285-0.638-0.638-0.638h-1.275c-0.352 0-0.638 0.286-0.638 0.638s0.286 0.638 0.638 0.638h1.275z"></path>
</symbol>
<symbol id="icon-astronaut-1" viewBox="0 0 32 32">
<path fill="#2196f3" style="fill: var(--color2, #2196f3)" d="M31.974 4.524c-0.063-0.193-0.229-0.333-0.43-0.363l-1.91-0.278-0.855-1.731c-0.179-0.365-0.777-0.365-0.956 0l-0.855 1.731-1.91 0.278c-0.201 0.029-0.367 0.17-0.431 0.363-0.062 0.193-0.011 0.405 0.135 0.547l1.383 1.348-0.326 1.903c-0.034 0.2 0.048 0.402 0.212 0.522 0.166 0.121 0.382 0.135 0.562 0.040l1.709-0.899 1.709 0.899c0.078 0.041 0.164 0.061 0.249 0.061 0.11 0 0.221-0.034 0.314-0.102 0.164-0.119 0.246-0.322 0.212-0.522l-0.326-1.903 1.383-1.348c0.145-0.142 0.197-0.354 0.135-0.547zM29.511 5.851c-0.125 0.122-0.183 0.299-0.153 0.472l0.191 1.114-1-0.526c-0.078-0.041-0.163-0.061-0.249-0.061s-0.17 0.020-0.249 0.061l-1.001 0.526 0.191-1.114c0.030-0.173-0.028-0.349-0.153-0.472l-0.81-0.789 1.119-0.163c0.174-0.025 0.324-0.134 0.402-0.292l0.5-1.013 0.5 1.013c0.078 0.157 0.228 0.267 0.402 0.292l1.119 0.163-0.809 0.789z"></path>
<path fill="#2196f3" style="fill: var(--color2, #2196f3)" d="M26.134 20.522h-1.067v1.067h1.067v-1.067z"></path>
<path fill="#2196f3" style="fill: var(--color2, #2196f3)" d="M26.134 22.656h-1.067v1.067h1.067v-1.067z"></path>
<path fill="#2196f3" style="fill: var(--color2, #2196f3)" d="M27.2 21.589h-1.067v1.067h1.067v-1.067z"></path>
<path fill="#2196f3" style="fill: var(--color2, #2196f3)" d="M25.067 21.589h-1.067v1.067h1.067v-1.067z"></path>
<path fill="#2196f3" style="fill: var(--color2, #2196f3)" d="M22.4 26.389h-1.067v1.067h1.067v-1.067z"></path>
<path fill="#2196f3" style="fill: var(--color2, #2196f3)" d="M22.4 28.522h-1.067v1.067h1.067v-1.067z"></path>
<path fill="#2196f3" style="fill: var(--color2, #2196f3)" d="M23.467 27.456h-1.067v1.067h1.067v-1.067z"></path>
<path fill="#2196f3" style="fill: var(--color2, #2196f3)" d="M21.333 27.456h-1.067v1.067h1.067v-1.067z"></path>
<path fill="#2196f3" style="fill: var(--color2, #2196f3)" d="M16 24.256h-1.067v1.067h1.067v-1.067z"></path>
<path fill="#2196f3" style="fill: var(--color2, #2196f3)" d="M16 26.389h-1.067v1.067h1.067v-1.067z"></path>
<path fill="#2196f3" style="fill: var(--color2, #2196f3)" d="M17.067 25.322h-1.067v1.067h1.067v-1.067z"></path>
<path fill="#2196f3" style="fill: var(--color2, #2196f3)" d="M14.933 25.322h-1.067v1.067h1.067v-1.067z"></path>
<path fill="#2196f3" style="fill: var(--color2, #2196f3)" d="M5.867 6.122h-1.067v1.067h1.067v-1.067z"></path>
<path fill="#2196f3" style="fill: var(--color2, #2196f3)" d="M5.867 8.255h-1.067v1.067h1.067v-1.067z"></path>
<path fill="#2196f3" style="fill: var(--color2, #2196f3)" d="M6.933 7.189h-1.067v1.067h1.067v-1.067z"></path>
<path fill="#2196f3" style="fill: var(--color2, #2196f3)" d="M4.8 7.189h-1.067v1.067h1.067v-1.067z"></path>
<path fill="#212121" style="fill: var(--color1, #212121)" d="M24.715 14.159c-0.287-0.388-0.709-0.637-1.188-0.705-0.481-0.068-0.956 0.058-1.34 0.352l-1.252 0.96-1.898 1.417-1.358-0.541c2.421-1.086 4.114-3.508 4.114-6.32 0-3.823-3.123-6.933-6.961-6.933s-6.961 3.11-6.961 6.933c0 1.386 0.414 2.674 1.12 3.758l-2.764-0.024c-0.002 0-0.003 0-0.005 0-0.009 0-0.015 0.004-0.023 0.005-0.053 0.002-0.105 0.013-0.155 0.031-0.013 0.005-0.026 0.008-0.038 0.013-0.006 0.003-0.013 0.003-0.019 0.006l-3.233 1.596c-0.001 0-0.001 0-0.001 0.001l-1.893 0.911c-0.021 0.009-0.042 0.021-0.063 0.035-0.755 0.502-1.012 1.489-0.598 2.295 0.22 0.429 0.595 0.745 1.056 0.889 0.178 0.055 0.359 0.083 0.539 0.083 0.29 0 0.577-0.071 0.839-0.211l1.388-0.738 2.264-1.169 1.357-0.008-5.442 5.416c-0.001 0.001-0.001 0.001-0.002 0.001l-1.339 1.333c-0.316 0.315-0.49 0.732-0.49 1.178s0.174 0.863 0.49 1.179c0.325 0.323 0.752 0.485 1.179 0.485s0.854-0.162 1.18-0.485l1.314-1.309 1.741-1.3 0.901 0.897-1.762 1.754c-0 0.001-0.001 0.001-0.002 0.001l-1.339 1.333c-0.316 0.315-0.49 0.732-0.49 1.178s0.174 0.863 0.49 1.179c0.325 0.323 0.753 0.485 1.18 0.485s0.855-0.162 1.18-0.485l3.482-3.467c0.001-0.001 0.001-0.001 0.001-0.002l1.010-1-0.004-0.004c0.006-0.006 0.015-0.009 0.022-0.015l5.166-5.658 3.471 0.494c0.025 0.004 0.050 0.005 0.075 0.005 0.065 0 0.127-0.015 0.187-0.038 0.018-0.006 0.033-0.015 0.050-0.023 0.019-0.010 0.039-0.015 0.058-0.027l3.213-2.133c0.012-0.008 0.018-0.021 0.029-0.029 0.013-0.010 0.029-0.014 0.041-0.026l1.271-1.191c0.662-0.62 0.753-1.635 0.212-2.362zM2.13 17.77c-0.173 0.093-0.37 0.111-0.558 0.052-0.187-0.058-0.338-0.186-0.427-0.358-0.161-0.314-0.068-0.695 0.214-0.902l1.314-0.632 0.449 1.312-0.992 0.528zM5.628 15.942l-1.548 0.8-0.439-1.283 2.027-1.001-0.040 1.484zM20.727 9.322c0 0.918-0.219 1.785-0.599 2.559l-4.181-1.899c-0.044-0.573-0.341-1.075-0.788-1.388l1.464-4.86c2.378 0.756 4.105 2.974 4.105 5.588zM8.938 9.322c0-3.235 2.644-5.867 5.894-5.867 0.253 0 0.5 0.021 0.745 0.052l-1.432 4.754c-0.019-0.001-0.037-0.006-0.057-0.006-1.033 0-1.873 0.837-1.873 1.867s0.84 1.867 1.873 1.867c0.694 0 1.294-0.383 1.618-0.945l3.862 1.755c-1.075 1.446-2.795 2.39-4.737 2.39-3.25 0-5.894-2.632-5.894-5.867zM14.894 10.122c0 0.441-0.362 0.8-0.806 0.8s-0.806-0.359-0.806-0.8c0-0.441 0.362-0.8 0.806-0.8s0.806 0.359 0.806 0.8zM2.465 25.146c-0.236 0.234-0.619 0.234-0.854 0.001-0.114-0.114-0.176-0.263-0.176-0.423s0.062-0.309 0.176-0.421l0.962-0.958 0.851 0.848-0.959 0.955zM5.679 28.88c-0.236 0.234-0.619 0.235-0.855 0.001-0.114-0.114-0.176-0.263-0.176-0.423s0.062-0.309 0.176-0.421l0.963-0.959 0.852 0.848-0.96 0.955zM9.16 25.411c-0.001 0-0.001 0-0.002 0.001l-1.765 1.76-0.852-0.848 1.763-1.755c0 0 0 0 0-0s0.001-0.001 0.002-0.001c0.040-0.040 0.065-0.088 0.090-0.135 0.007-0.014 0.020-0.026 0.026-0.040 0.017-0.041 0.019-0.085 0.026-0.129 0.003-0.025 0.014-0.047 0.014-0.073 0-0.036-0.013-0.070-0.020-0.106-0.006-0.032-0.006-0.065-0.019-0.095-0.020-0.050-0.055-0.094-0.091-0.138-0.010-0.012-0.014-0.027-0.025-0.038 0 0 0 0-0.001 0s-0.001-0.002-0.001-0.002l-1.607-1.6c-0.017-0.017-0.039-0.024-0.058-0.038-0.028-0.022-0.055-0.042-0.087-0.058-0.030-0.015-0.061-0.024-0.093-0.033-0.034-0.010-0.067-0.017-0.103-0.020-0.033-0.002-0.063 0.001-0.095 0.005-0.036 0.004-0.069 0.009-0.104 0.020-0.034 0.011-0.063 0.027-0.094 0.045-0.020 0.011-0.042 0.015-0.061 0.029l-1.773 1.324-0.901-0.897 2.399-2.386 4.361 4.289-0.928 0.919zM15.979 18.394c-0.015-0.002-0.030 0.004-0.045 0.003-0.039-0.002-0.076 0.001-0.115 0.007-0.030 0.005-0.059 0.011-0.088 0.021-0.034 0.012-0.065 0.028-0.097 0.047-0.030 0.018-0.057 0.037-0.083 0.061-0.013 0.011-0.028 0.017-0.040 0.029l-4.698 5.146-4.328-4.257 2.833-2.818c0.209-0.208 0.21-0.546 0.002-0.755-0.105-0.105-0.243-0.157-0.381-0.156v-0.001l-2.219 0.013 0.028-1.607 3.104 0.027c1.265 1.294 3.029 2.101 4.981 2.101 0.437 0 0.864-0.045 1.279-0.123 0.040 0.032 0.079 0.065 0.13 0.085l2.41 0.96 0.331 1.644-3.003-0.427zM20.020 18.572l-0.313-1.558 1.446-1.080 0.947 1.257-2.080 1.381zM23.774 15.741l-0.838 0.785-0.931-1.236 0.831-0.637c0.155-0.119 0.351-0.168 0.543-0.143 0.193 0.027 0.364 0.128 0.48 0.284 0.217 0.292 0.18 0.699-0.085 0.947z"></path>
<path fill="#212121" style="fill: var(--color1, #212121)" d="M13.602 18.544l-2.143-2.133c-0.207-0.207-0.545-0.207-0.753 0l-2.142 2.133c-0.1 0.101-0.157 0.236-0.157 0.378s0.056 0.278 0.157 0.378l2.142 2.133c0.104 0.103 0.241 0.155 0.377 0.155s0.273-0.052 0.376-0.155l2.143-2.133c0.1-0.1 0.157-0.236 0.157-0.378s-0.057-0.278-0.157-0.378zM11.083 20.303l-1.387-1.381 1.387-1.381 1.387 1.381-1.387 1.381z"></path>
<path fill="#212121" style="fill: var(--color1, #212121)" d="M17.164 5.071l-0.258 1.036c0.071 0.018 1.738 0.452 1.738 2.149h1.067c-0-2.017-1.666-2.965-2.547-3.185z"></path>
<path fill="#212121" style="fill: var(--color1, #212121)" d="M19.711 9.322h-1.067v1.067h1.067v-1.067z"></path>
</symbol>
<symbol id="icon-Logo" viewBox="0 0 49 28">
<path d="M17.733 3.267l3.27 3.096-6.070-0.004v15.021h15.867v-5.743l3.267 3.092v-15.462h-16.333zM30.656 15.273l-9.273-8.778h9.273v8.778zM27.777 19.183h-10.333v-10.102h0.73v9.418h9.603v0.684zM19.884 23.38l-0.382 0.786-0.382-0.786h-0.32l0.557 1.048v0.611h0.289v-0.611l0.556-1.048h-0.319zM20.364 25.038l0.134-0.386h0.643l0.136 0.386h0.301l-0.628-1.659h-0.259l-0.627 1.659h0.3zM20.82 23.732l0.24 0.688h-0.481l0.24-0.688zM22.339 24.38c-0.042 0.064-0.063 0.134-0.063 0.211 0 0.14 0.049 0.253 0.147 0.341s0.23 0.13 0.394 0.13 0.305-0.044 0.424-0.133l0.093 0.11h0.321l-0.244-0.288c0.096-0.131 0.144-0.298 0.144-0.502h-0.24c0 0.112-0.023 0.213-0.069 0.304l-0.32-0.378 0.113-0.082c0.080-0.058 0.137-0.115 0.172-0.173s0.052-0.122 0.052-0.191c0-0.105-0.039-0.193-0.116-0.263s-0.175-0.107-0.296-0.107c-0.134 0-0.24 0.038-0.319 0.114s-0.118 0.178-0.118 0.308c0 0.053 0.013 0.108 0.038 0.165s0.071 0.126 0.136 0.207c-0.123 0.088-0.205 0.164-0.247 0.229zM23.088 24.747c-0.081 0.062-0.169 0.093-0.262 0.093-0.083 0-0.149-0.024-0.198-0.072s-0.074-0.11-0.074-0.187c0-0.089 0.046-0.168 0.137-0.237l0.035-0.025 0.362 0.427zM22.791 24.012c-0.078-0.096-0.117-0.177-0.117-0.24 0-0.055 0.016-0.101 0.048-0.138s0.075-0.055 0.129-0.055c0.050 0 0.092 0.016 0.124 0.047s0.049 0.067 0.049 0.11c0 0.065-0.024 0.119-0.071 0.161l-0.035 0.029-0.126 0.087zM25.491 24.913c0.114-0.1 0.179-0.238 0.196-0.415h-0.287c-0.015 0.118-0.051 0.203-0.108 0.254s-0.142 0.076-0.255 0.076c-0.124 0-0.218-0.047-0.283-0.141s-0.096-0.231-0.096-0.41v-0.147c0.002-0.177 0.036-0.311 0.103-0.402s0.164-0.138 0.289-0.138c0.108 0 0.19 0.027 0.245 0.080s0.091 0.138 0.105 0.257h0.287c-0.018-0.182-0.083-0.322-0.195-0.422s-0.259-0.149-0.442-0.149c-0.136 0-0.256 0.032-0.36 0.097s-0.183 0.156-0.238 0.276c-0.055 0.119-0.083 0.257-0.083 0.414v0.155c0.002 0.153 0.031 0.287 0.085 0.402s0.132 0.205 0.232 0.268c0.101 0.062 0.218 0.093 0.35 0.093 0.189 0 0.341-0.049 0.455-0.148zM27.185 24.681c0.056-0.123 0.084-0.266 0.084-0.428v-0.092c-0.001-0.162-0.030-0.303-0.087-0.425s-0.138-0.216-0.243-0.28c-0.104-0.065-0.224-0.098-0.359-0.098s-0.255 0.033-0.36 0.099c-0.104 0.065-0.185 0.16-0.243 0.284s-0.085 0.267-0.085 0.428v0.093c0.001 0.159 0.030 0.299 0.087 0.42s0.139 0.215 0.244 0.281c0.106 0.065 0.226 0.098 0.36 0.098 0.136 0 0.256-0.033 0.36-0.098s0.185-0.16 0.242-0.283zM26.876 23.743c0.070 0.098 0.105 0.239 0.105 0.423v0.087c0 0.187-0.035 0.329-0.104 0.426s-0.166 0.146-0.294 0.146c-0.126 0-0.225-0.050-0.296-0.149s-0.106-0.24-0.106-0.423v-0.096c0.002-0.178 0.037-0.316 0.107-0.414s0.168-0.147 0.293-0.147c0.128 0 0.226 0.049 0.295 0.147z"></path>
</symbol>
<symbol id="icon-Logo-5" viewBox="0 0 49 28">
<path d="M24.932 12.791c-0.207-0.275-0.306-0.601-0.282-0.928v-1.346c0-0.412 0.094-0.726 0.281-0.94s0.508-0.321 0.964-0.32c0.428 0 0.732 0.091 0.912 0.274 0.196 0.233 0.291 0.518 0.27 0.805v0.316h-0.766v-0.32c0.003-0.105-0.005-0.21-0.022-0.313-0.011-0.071-0.050-0.137-0.109-0.186-0.079-0.053-0.178-0.079-0.277-0.073-0.105-0.007-0.209 0.021-0.292 0.077-0.067 0.055-0.111 0.127-0.127 0.205-0.022 0.11-0.032 0.221-0.030 0.333v1.633c-0.012 0.158 0.022 0.315 0.098 0.459 0.038 0.048 0.091 0.087 0.153 0.111s0.13 0.033 0.198 0.026c0.098 0.007 0.195-0.020 0.271-0.074 0.062-0.053 0.103-0.123 0.114-0.198 0.018-0.108 0.026-0.218 0.024-0.327v-0.331h0.766v0.303c0.022 0.299-0.072 0.597-0.265 0.846-0.176 0.2-0.476 0.3-0.916 0.3s-0.774-0.107-0.962-0.329z"></path>
<path d="M28.12 12.804c-0.193-0.209-0.29-0.515-0.29-0.918v-1.415c0-0.4 0.097-0.702 0.29-0.907s0.517-0.308 0.97-0.307c0.45 0 0.772 0.102 0.965 0.307s0.292 0.508 0.292 0.907v1.415c0 0.4-0.098 0.706-0.295 0.917s-0.517 0.316-0.962 0.316c-0.445 0-0.775-0.107-0.97-0.315zM29.447 12.465c0.069-0.131 0.101-0.275 0.092-0.419v-1.733c0.009-0.141-0.022-0.282-0.090-0.411-0.039-0.050-0.093-0.089-0.156-0.113s-0.133-0.033-0.202-0.024c-0.069-0.008-0.139 0-0.202 0.024s-0.118 0.063-0.157 0.113c-0.070 0.128-0.101 0.269-0.092 0.411v1.741c-0.010 0.144 0.022 0.288 0.092 0.419 0.045 0.044 0.1 0.080 0.162 0.104s0.129 0.037 0.197 0.037c0.068 0 0.135-0.013 0.197-0.037s0.117-0.060 0.162-0.104v-0.008z"></path>
<path d="M31.268 9.298h0.824l0.62 2.611 0.634-2.611h0.802l0.081 3.769h-0.593l-0.063-2.62-0.612 2.62h-0.476l-0.634-2.629-0.059 2.629h-0.599l0.074-3.769z"></path>
<path d="M35.154 9.298h1.284c0.74 0 1.11 0.357 1.11 1.070 0 0.683-0.389 1.025-1.168 1.024h-0.438v1.675h-0.793l0.005-3.769zM36.251 10.909c0.078 0.009 0.158 0.002 0.233-0.018s0.144-0.055 0.203-0.101c0.091-0.127 0.131-0.277 0.114-0.426 0.004-0.115-0.009-0.23-0.038-0.342-0.011-0.037-0.031-0.073-0.058-0.103s-0.061-0.057-0.1-0.076c-0.11-0.046-0.232-0.066-0.354-0.060h-0.308v1.126h0.308z"></path>
<path d="M38.691 9.298h0.851l0.873 3.769h-0.739l-0.173-0.869h-0.759l-0.178 0.869h-0.75l0.873-3.769zM39.419 11.761l-0.296-1.582-0.296 1.582h0.593z"></path>
<path d="M41.121 9.298h0.555l1.062 2.15v-2.15h0.658v3.769h-0.528l-1.069-2.245v2.245h-0.68l0.002-3.769z"></path>
<path d="M44.937 11.63l-0.883-2.327h0.744l0.539 1.495 0.506-1.495h0.728l-0.872 2.327v1.437h-0.761v-1.437z"></path>
<path d="M26.156 14.715v0.197h-0.647v1.532h-0.271v-1.532h-0.65v-0.197h1.568z"></path>
<path d="M28.183 16.444h-0.209c-0.021 0.001-0.042-0.005-0.059-0.016-0.016-0.010-0.028-0.024-0.035-0.040l-0.187-0.411h-0.897l-0.187 0.411c-0.005 0.017-0.015 0.033-0.029 0.047-0.017 0.011-0.037 0.017-0.059 0.016h-0.209l0.793-1.729h0.276l0.802 1.722zM26.871 15.802h0.748l-0.317-0.703c-0.023-0.053-0.043-0.108-0.059-0.163-0.011 0.033-0.021 0.064-0.030 0.092l-0.029 0.073-0.314 0.702z"></path>
<path d="M29.55 16.274c0.050 0.002 0.099 0.002 0.149 0 0.043-0.004 0.085-0.011 0.127-0.021 0.039-0.008 0.077-0.019 0.114-0.032 0.035-0.012 0.070-0.027 0.106-0.042v-0.389h-0.317c-0.008 0-0.016-0.001-0.023-0.003s-0.014-0.006-0.020-0.011c-0.005-0.004-0.009-0.009-0.012-0.014s-0.004-0.011-0.004-0.017v-0.133h0.615v0.663c-0.050 0.031-0.103 0.058-0.159 0.082-0.057 0.024-0.115 0.044-0.176 0.059-0.065 0.016-0.131 0.028-0.198 0.036-0.077 0.007-0.154 0.011-0.231 0.011-0.137 0.001-0.272-0.021-0.4-0.064-0.119-0.041-0.227-0.103-0.317-0.181-0.088-0.079-0.158-0.172-0.205-0.274-0.050-0.115-0.075-0.236-0.073-0.359-0.002-0.123 0.023-0.246 0.071-0.361 0.046-0.102 0.115-0.196 0.205-0.274 0.090-0.078 0.198-0.139 0.317-0.179 0.136-0.044 0.28-0.066 0.425-0.064 0.074-0 0.148 0.005 0.22 0.015 0.064 0.009 0.128 0.024 0.189 0.044 0.055 0.018 0.109 0.041 0.159 0.068 0.049 0.027 0.095 0.057 0.138 0.090l-0.076 0.107c-0.006 0.010-0.015 0.018-0.026 0.024s-0.023 0.009-0.036 0.009c-0.018-0-0.035-0.005-0.049-0.014-0.024-0.011-0.049-0.025-0.078-0.041-0.034-0.018-0.069-0.034-0.106-0.047-0.047-0.016-0.096-0.029-0.146-0.038-0.066-0.011-0.134-0.016-0.201-0.015-0.105-0.001-0.208 0.015-0.306 0.048-0.088 0.031-0.168 0.077-0.233 0.137-0.066 0.062-0.116 0.135-0.147 0.215-0.071 0.187-0.071 0.389 0 0.576 0.035 0.081 0.089 0.155 0.159 0.218 0.065 0.059 0.144 0.106 0.231 0.137 0.101 0.030 0.208 0.042 0.314 0.034v0z"></path>
<path d="M32.077 16.246h0.866v0.197h-1.13v-1.729h0.271l-0.006 1.532z"></path>
<path d="M33.843 16.443h-0.271v-1.729h0.271v1.729z"></path>
<path d="M34.851 14.723c0.016 0.008 0.030 0.019 0.041 0.032l1.159 1.303c-0.002-0.020-0.002-0.041 0-0.062 0-0.019 0-0.038 0-0.056v-1.232h0.236v1.736h-0.136c-0.020 0.001-0.040-0.002-0.059-0.010-0.016-0.009-0.031-0.020-0.043-0.033l-1.157-1.302c0 0.021 0 0.040 0 0.059s0 0.037 0 0.053v1.232h-0.227v-1.729h0.141c0.015 0 0.030 0.003 0.044 0.008v0z"></path>
<path d="M38.284 14.715v0.19h-0.961v0.571h0.778v0.183h-0.778v0.59h0.961v0.19h-1.24v-1.725h1.24z"></path>
<path d="M9.875 4.039l12.038 2.951v10.34l-12.038-2.95v-10.342zM9.103 3.158v11.725l13.58 3.33v-11.724l-13.58-3.331z"></path>
<path d="M16.382 23.656l-13.582-3.333v-11.724l13.582 3.331v11.726z"></path>
<path d="M9.329 3.906l11.881 2.914-5.053 4.363-11.882-2.915 5.054-4.362zM9.103 3.158l-6.303 5.442 13.582 3.331 6.302-5.442-13.58-3.331z"></path>
<path d="M17.146 22.997l5.538-4.782-5.538-1.359v6.141z"></path>
</symbol>
<symbol id="icon-Logo-4" viewBox="0 0 49 28">
<path d="M12.487 20.876c0.114 0.129 0.174 0.29 0.171 0.456 0.006 0.108-0.015 0.216-0.061 0.316s-0.116 0.189-0.204 0.26c-0.221 0.153-0.495 0.227-0.771 0.21h-1.355v-2.889h1.327c0.262-0.016 0.522 0.052 0.735 0.192 0.086 0.066 0.154 0.149 0.198 0.243s0.065 0.196 0.059 0.298c0.008 0.159-0.047 0.316-0.154 0.442-0.103 0.115-0.245 0.194-0.404 0.226 0.18 0.030 0.342 0.118 0.458 0.247v0zM10.897 20.44h0.567c0.129 0.009 0.257-0.025 0.361-0.096 0.043-0.035 0.076-0.079 0.097-0.128s0.030-0.102 0.025-0.154c0.004-0.052-0.005-0.105-0.025-0.153s-0.053-0.093-0.095-0.129c-0.107-0.073-0.239-0.107-0.372-0.097h-0.558v0.758zM11.881 21.548c0.045-0.036 0.081-0.082 0.105-0.132s0.033-0.106 0.030-0.161c0.003-0.056-0.007-0.111-0.031-0.163s-0.060-0.097-0.106-0.134c-0.111-0.075-0.248-0.112-0.385-0.104h-0.595v0.795h0.603c0.136 0.007 0.27-0.028 0.381-0.1v0z"></path>
<path d="M15.2 22.119l-0.738-1.129h-0.277v1.129h-0.635v-2.889h1.202c0.303-0.019 0.603 0.069 0.837 0.246 0.168 0.157 0.269 0.363 0.286 0.583s-0.053 0.437-0.196 0.613c-0.148 0.156-0.351 0.259-0.573 0.294l0.786 1.155h-0.691zM14.184 20.596h0.52c0.361 0 0.541-0.146 0.541-0.438 0.004-0.060-0.006-0.119-0.029-0.175s-0.058-0.107-0.104-0.15c-0.114-0.087-0.261-0.129-0.409-0.117h-0.526l0.006 0.879z"></path>
<path d="M18.671 21.537h-1.266l-0.224 0.582h-0.666l1.162-2.857h0.72l1.158 2.857h-0.666l-0.219-0.582zM18.502 21.099l-0.462-1.22-0.462 1.22h0.925z"></path>
<path d="M23.017 22.119h-0.631l-1.414-1.965v1.965h-0.629v-2.889h0.629l1.414 1.976v-1.976h0.631v2.889z"></path>
<path d="M26.615 21.427c-0.13 0.218-0.329 0.396-0.57 0.51-0.274 0.127-0.579 0.189-0.886 0.182h-1.122v-2.889h1.122c0.307-0.007 0.611 0.054 0.886 0.178 0.241 0.111 0.44 0.287 0.57 0.504 0.13 0.235 0.197 0.495 0.197 0.758s-0.068 0.523-0.197 0.758v0zM25.894 21.358c0.18-0.192 0.279-0.437 0.279-0.69s-0.099-0.498-0.279-0.689c-0.218-0.174-0.501-0.262-0.789-0.246h-0.438v1.87h0.438c0.288 0.016 0.572-0.072 0.789-0.246z"></path>
<path d="M19.066 3.158c0 0 8.138 2.813 7.965 6.884v6.885c0 0-8.132-2.815-7.962-6.885l-0.003-6.884z"></path>
<path d="M34.281 15.315c1.537-0.968 3.315-1.568 5.17-1.745v-2.155c-2.138 0.755-3.952 2.123-5.17 3.9v0z"></path>
<path d="M33.358 15.964c1.258-2.319 3.439-4.109 6.094-5.001v-6.211c0 0-11.59 4.007-11.345 9.804v9.803c0 0 0.516-0.179 1.329-0.515 0-0.313 0-0.629 0.037-0.947 0.24-2.691 1.637-5.185 3.885-6.933v0z"></path>
<path d="M32.256 19.606c0.061-0.68 0.197-1.352 0.405-2.007-1.399 1.51-2.247 3.383-2.423 5.357-0.017 0.186-0.026 0.373-0.031 0.565 0.658-0.289 1.424-0.651 2.229-1.076-0.205-0.934-0.266-1.889-0.18-2.839v0z"></path>
<path d="M32.717 19.641c-0.077 0.859-0.029 1.723 0.143 2.57 3.166-1.735 6.724-4.415 6.587-7.655v-0.282c-2.262 0.232-4.379 1.137-6.025 2.577-0.385 0.892-0.623 1.832-0.706 2.789v0z"></path>
</symbol>
<symbol id="icon-Logo-3" viewBox="0 0 49 28">
<path d="M11.268 9.848h-0.001c-1.119 0-2.026 0.806-2.026 1.801v0.001c0 0.995 0.907 1.801 2.026 1.801h0.001c1.119 0 2.026-0.806 2.026-1.801v-0.001c0-0.995-0.907-1.801-2.026-1.801z"></path>
<path d="M26.224 9.272c-0.003-1.381-0.622-2.705-1.721-3.682s-2.589-1.527-4.143-1.53c-1.555 0.003-3.045 0.552-4.145 1.529s-1.719 2.301-1.722 3.683v7.617c0 0 11.729-1.161 11.73-7.616v-0.001z"></path>
<path d="M5.133 19.39c0.003 0.961 0.434 1.882 1.198 2.562s1.801 1.063 2.882 1.066v0c1.081-0.003 2.117-0.386 2.882-1.065s1.196-1.6 1.199-2.561v0-5.3c0 0-8.161 0.808-8.161 5.299zM9.214 20.339c-0.211 0-0.418-0.056-0.594-0.16s-0.313-0.253-0.394-0.426c-0.081-0.173-0.102-0.364-0.061-0.549s0.143-0.353 0.292-0.486c0.149-0.133 0.34-0.223 0.547-0.26s0.422-0.018 0.617 0.054c0.195 0.072 0.362 0.194 0.48 0.35s0.18 0.34 0.18 0.528c0.001 0.125-0.027 0.249-0.080 0.365s-0.132 0.221-0.231 0.309c-0.099 0.089-0.217 0.159-0.347 0.207s-0.269 0.073-0.41 0.073v-0.004z"></path>
<path d="M17.462 19.816h-0.787v0.814h-0.41v-1.991h1.296v0.332h-0.886v0.514h0.787v0.331zM19.433 19.68c0 0.196-0.035 0.368-0.104 0.515s-0.169 0.262-0.298 0.342c-0.128 0.080-0.276 0.12-0.443 0.12-0.165 0-0.312-0.040-0.442-0.119s-0.23-0.192-0.301-0.339c-0.071-0.148-0.107-0.317-0.108-0.509v-0.098c0-0.196 0.035-0.368 0.105-0.517s0.171-0.264 0.299-0.343c0.129-0.080 0.277-0.12 0.443-0.12s0.313 0.040 0.442 0.12c0.129 0.079 0.229 0.194 0.299 0.343s0.107 0.32 0.107 0.515v0.089zM19.017 19.589c0-0.209-0.037-0.367-0.112-0.476s-0.181-0.163-0.32-0.163c-0.138 0-0.244 0.054-0.319 0.161s-0.113 0.263-0.113 0.47v0.097c0 0.203 0.037 0.361 0.112 0.473s0.182 0.168 0.323 0.168c0.138 0 0.243-0.054 0.317-0.161s0.111-0.266 0.112-0.473v-0.097zM20.763 20.108c0-0.077-0.027-0.137-0.082-0.178s-0.153-0.086-0.295-0.131c-0.142-0.047-0.255-0.092-0.338-0.137-0.226-0.122-0.339-0.287-0.339-0.494 0-0.108 0.030-0.203 0.090-0.287s0.148-0.151 0.261-0.198c0.114-0.047 0.242-0.071 0.383-0.071s0.269 0.026 0.38 0.078c0.111 0.051 0.197 0.123 0.258 0.217s0.093 0.201 0.093 0.32h-0.41c0-0.091-0.029-0.162-0.086-0.212s-0.138-0.077-0.242-0.077c-0.1 0-0.178 0.021-0.234 0.064s-0.083 0.098-0.083 0.167c0 0.065 0.032 0.119 0.097 0.163s0.162 0.085 0.288 0.123c0.233 0.070 0.403 0.157 0.51 0.261s0.16 0.233 0.16 0.388c0 0.172-0.065 0.308-0.196 0.406s-0.306 0.146-0.526 0.146c-0.153 0-0.293-0.028-0.418-0.083s-0.222-0.134-0.288-0.231c-0.066-0.098-0.098-0.211-0.098-0.339h0.412c0 0.22 0.131 0.33 0.394 0.33 0.098 0 0.174-0.020 0.228-0.059s0.082-0.096 0.082-0.167zM22.952 18.972h-0.61v1.658h-0.41v-1.658h-0.602v-0.332h1.621v0.332zM24.385 19.767h-0.787v0.533h0.924v0.329h-1.334v-1.991h1.332v0.332h-0.921v0.474h0.787v0.321zM25.499 19.901h-0.327v0.729h-0.41v-1.991h0.74c0.235 0 0.416 0.052 0.544 0.157s0.191 0.253 0.191 0.444c0 0.136-0.030 0.249-0.089 0.34s-0.147 0.162-0.267 0.216l0.431 0.814v0.019h-0.44l-0.373-0.729zM25.173 19.569h0.331c0.103 0 0.183-0.026 0.239-0.078s0.085-0.125 0.085-0.217c0-0.094-0.027-0.168-0.081-0.222s-0.134-0.081-0.245-0.081h-0.33v0.597zM27.658 19.929v0.701h-0.41v-1.991h0.777c0.149 0 0.281 0.027 0.394 0.082s0.201 0.133 0.262 0.234c0.061 0.1 0.092 0.215 0.092 0.343 0 0.195-0.067 0.349-0.201 0.462s-0.318 0.168-0.554 0.168h-0.36zM27.658 19.596h0.366c0.109 0 0.191-0.026 0.247-0.077s0.086-0.124 0.086-0.219c0-0.098-0.029-0.176-0.086-0.237s-0.137-0.091-0.238-0.093h-0.376v0.625zM30.253 19.767h-0.787v0.533h0.924v0.329h-1.334v-1.991h1.332v0.332h-0.921v0.474h0.787v0.321zM32.156 18.972h-0.61v1.658h-0.41v-1.658h-0.602v-0.332h1.621v0.332zM33.589 19.767h-0.787v0.533h0.924v0.329h-1.334v-1.991h1.332v0.332h-0.921v0.474h0.787v0.321zM34.703 19.901h-0.327v0.729h-0.41v-1.991h0.74c0.235 0 0.417 0.052 0.544 0.157s0.191 0.253 0.191 0.444c0 0.136-0.030 0.249-0.089 0.34s-0.147 0.162-0.267 0.216l0.431 0.814v0.019h-0.44l-0.373-0.729zM34.376 19.569h0.331c0.103 0 0.183-0.026 0.239-0.078s0.085-0.125 0.085-0.217c0-0.094-0.027-0.168-0.081-0.222s-0.134-0.081-0.245-0.081h-0.329v0.597zM36.787 20.108c0-0.077-0.027-0.137-0.082-0.178s-0.153-0.086-0.295-0.131c-0.142-0.047-0.255-0.092-0.338-0.137-0.226-0.122-0.339-0.287-0.339-0.494 0-0.108 0.030-0.203 0.090-0.287s0.148-0.151 0.261-0.198c0.114-0.047 0.242-0.071 0.383-0.071s0.269 0.026 0.38 0.078c0.111 0.051 0.197 0.123 0.258 0.217s0.093 0.201 0.093 0.32h-0.41c0-0.091-0.029-0.162-0.086-0.212s-0.138-0.077-0.242-0.077c-0.1 0-0.178 0.021-0.234 0.064s-0.083 0.098-0.083 0.167c0 0.065 0.032 0.119 0.097 0.163s0.162 0.085 0.289 0.123c0.233 0.070 0.403 0.157 0.51 0.261s0.16 0.233 0.16 0.388c0 0.172-0.065 0.308-0.195 0.406s-0.306 0.146-0.526 0.146c-0.153 0-0.293-0.028-0.418-0.083s-0.222-0.134-0.289-0.231c-0.066-0.098-0.098-0.211-0.098-0.339h0.411c0 0.22 0.131 0.33 0.394 0.33 0.097 0 0.174-0.020 0.228-0.059s0.082-0.096 0.082-0.167z"></path>
</symbol>
<symbol id="icon-Logo-2" viewBox="0 0 49 28">
<path d="M16.99 22.914c0.007 0 0.015 0.002 0.022 0.004s0.013 0.006 0.018 0.011l0.102 0.097c-0.079 0.079-0.177 0.142-0.286 0.185-0.128 0.047-0.267 0.069-0.406 0.066-0.131 0.002-0.261-0.019-0.382-0.062-0.109-0.040-0.207-0.099-0.288-0.175-0.082-0.078-0.145-0.17-0.186-0.27-0.044-0.111-0.066-0.228-0.065-0.346-0.002-0.118 0.022-0.236 0.070-0.347 0.044-0.1 0.111-0.192 0.197-0.27 0.087-0.076 0.191-0.136 0.305-0.176 0.125-0.042 0.259-0.063 0.393-0.062 0.125-0.003 0.249 0.017 0.365 0.056 0.101 0.038 0.193 0.091 0.274 0.156l-0.085 0.104c-0.006 0.007-0.013 0.014-0.022 0.019-0.010 0.006-0.022 0.009-0.034 0.008-0.013-0.001-0.026-0.005-0.037-0.011l-0.046-0.028-0.064-0.035c-0.027-0.013-0.056-0.025-0.085-0.034-0.038-0.012-0.076-0.021-0.116-0.028-0.050-0.008-0.101-0.012-0.151-0.011-0.097-0.001-0.193 0.015-0.282 0.046-0.084 0.029-0.159 0.074-0.221 0.13-0.063 0.060-0.112 0.131-0.144 0.208-0.036 0.088-0.053 0.181-0.052 0.274-0.002 0.095 0.016 0.189 0.052 0.279 0.031 0.076 0.079 0.147 0.141 0.207 0.058 0.056 0.131 0.1 0.211 0.128 0.083 0.030 0.172 0.045 0.262 0.044 0.052 0.001 0.104-0.002 0.155-0.009 0.084-0.009 0.164-0.034 0.235-0.074 0.036-0.020 0.069-0.043 0.101-0.069 0.013-0.011 0.030-0.017 0.048-0.018v0z"></path>
<path d="M19.929 22.425c0.002 0.117-0.022 0.234-0.069 0.344-0.041 0.1-0.107 0.191-0.192 0.267s-0.187 0.136-0.301 0.175c-0.249 0.083-0.524 0.083-0.774 0-0.113-0.040-0.214-0.1-0.299-0.176-0.085-0.078-0.151-0.169-0.193-0.27-0.092-0.223-0.092-0.466 0-0.689 0.043-0.1 0.109-0.192 0.193-0.271 0.085-0.074 0.187-0.131 0.299-0.169 0.249-0.084 0.525-0.084 0.774 0 0.113 0.040 0.215 0.1 0.3 0.176 0.084 0.077 0.149 0.167 0.192 0.266 0.047 0.111 0.070 0.228 0.069 0.346zM19.661 22.425c0.002-0.094-0.014-0.187-0.048-0.276-0.029-0.076-0.075-0.147-0.136-0.207-0.060-0.057-0.133-0.101-0.215-0.13-0.181-0.060-0.381-0.060-0.562 0-0.082 0.029-0.155 0.074-0.215 0.13-0.062 0.060-0.109 0.13-0.137 0.207-0.065 0.18-0.065 0.373 0 0.553 0.029 0.076 0.075 0.147 0.137 0.207 0.060 0.056 0.133 0.101 0.215 0.129 0.181 0.059 0.381 0.059 0.562 0 0.082-0.029 0.155-0.073 0.215-0.129 0.061-0.060 0.107-0.131 0.136-0.207 0.034-0.089 0.051-0.183 0.048-0.276v0z"></path>
<path d="M21.934 22.715l0.027 0.062c0.010-0.022 0.019-0.042 0.029-0.062s0.021-0.041 0.033-0.061l0.65-1.027c0.013-0.018 0.024-0.029 0.037-0.032 0.017-0.005 0.035-0.006 0.053-0.005h0.192v1.67h-0.228v-1.228c0-0.016 0-0.033 0-0.052-0.001-0.019-0.001-0.038 0-0.058l-0.654 1.041c-0.008 0.016-0.022 0.029-0.038 0.038s-0.036 0.014-0.056 0.014h-0.037c-0.020 0-0.039-0.005-0.056-0.014s-0.030-0.023-0.038-0.038l-0.673-1.048c0 0.020 0 0.040 0 0.060s0 0.038 0 0.053v1.228h-0.22v-1.667h0.192c0.018-0.001 0.036 0.001 0.053 0.005 0.016 0.007 0.028 0.018 0.036 0.032l0.664 1.028c0.013 0.019 0.024 0.039 0.033 0.060v0z"></path>
<path d="M24.381 22.632v0.626h-0.254v-1.668h0.567c0.107-0.002 0.214 0.011 0.317 0.036 0.082 0.020 0.159 0.056 0.224 0.104 0.057 0.045 0.1 0.101 0.127 0.164 0.030 0.068 0.045 0.14 0.043 0.213 0.001 0.073-0.015 0.146-0.047 0.213-0.031 0.064-0.078 0.121-0.137 0.167-0.065 0.050-0.142 0.088-0.225 0.11-0.099 0.028-0.203 0.041-0.307 0.039l-0.308-0.004zM24.381 22.453h0.308c0.067 0.001 0.133-0.008 0.197-0.025 0.053-0.015 0.101-0.040 0.142-0.072 0.038-0.031 0.068-0.068 0.087-0.111 0.021-0.045 0.031-0.092 0.031-0.14 0.003-0.046-0.006-0.093-0.026-0.136s-0.050-0.082-0.089-0.114c-0.097-0.066-0.219-0.098-0.342-0.090h-0.308v0.688z"></path>
<path d="M27.801 23.26h-0.201c-0.020 0.001-0.040-0.005-0.056-0.016-0.014-0.010-0.026-0.024-0.033-0.039l-0.173-0.404h-0.869l-0.179 0.404c-0.007 0.015-0.018 0.028-0.032 0.038-0.016 0.011-0.037 0.017-0.057 0.017h-0.201l0.763-1.67h0.265l0.774 1.67zM26.541 22.64h0.718l-0.303-0.68c-0.023-0.051-0.042-0.104-0.057-0.157l-0.029 0.087c-0.009 0.026-0.019 0.051-0.028 0.071l-0.3 0.679z"></path>
<path d="M28.9 21.597c0.015 0.007 0.028 0.017 0.038 0.030l1.113 1.259c0-0.020 0-0.040 0-0.059s0-0.038 0-0.055v-1.183h0.228v1.67h-0.127c-0.018 0-0.036-0.003-0.052-0.010s-0.030-0.018-0.041-0.031l-1.112-1.258c0.001 0.019 0.001 0.038 0 0.058 0 0.019 0 0.035 0 0.051v1.191h-0.228v-1.67h0.135c0.016-0 0.031 0.002 0.046 0.008v0z"></path>
<path d="M32.155 22.595v0.663h-0.254v-0.663l-0.704-1.006h0.228c0.020-0.001 0.039 0.004 0.055 0.014 0.014 0.011 0.025 0.023 0.034 0.038l0.44 0.649c0.018 0.028 0.033 0.053 0.046 0.077s0.023 0.048 0.032 0.071l0.033-0.072c0.012-0.026 0.027-0.052 0.043-0.076l0.434-0.653c0.009-0.013 0.020-0.025 0.033-0.035 0.015-0.011 0.035-0.017 0.055-0.017h0.23l-0.705 1.010z"></path>
<path d="M21.808 18.786c0.111 0.012 0.223 0.022 0.336 0.031 1.717-0.667 3.169-1.759 4.175-3.14s1.522-2.988 1.483-4.622l-1.892-1.644c0.385 1.739 0.205 3.538-0.52 5.193s-1.965 3.103-3.582 4.181v0z"></path>
<path d="M21.132 18.71l0.051 0.009c1.728-1.074 3.046-2.574 3.783-4.306s0.858-3.616 0.35-5.409l-2.695-2.341c1.090 1.925 1.529 4.078 1.265 6.211s-1.218 4.156-2.754 5.836v0z"></path>
<path d="M30.272 12.986c-0.458 1.795-1.57 3.414-3.171 4.616-0.468 0.353-0.972 0.668-1.507 0.94 1.304-0.333 2.502-0.921 3.502-1.72s1.776-1.787 2.268-2.887l-1.093-0.948z"></path>
<path d="M29.843 12.721l-1.556-1.352c-0.030 1.541-0.534 3.048-1.461 4.363s-2.242 2.39-3.808 3.114h0.008c0.349-0 0.698-0.018 1.045-0.054 1.464-0.519 2.758-1.345 3.765-2.404s1.697-2.319 2.008-3.666v0z"></path>
<path d="M21.358 5.675l-1.856-1.615c-1.66 0.557-3.087 1.537-4.095 2.81s-1.55 2.782-1.556 4.328v0c0.006 1.708 0.668 3.365 1.88 4.71s2.906 2.299 4.814 2.713c1.703-1.802 2.699-4.029 2.846-6.358s-0.566-4.636-2.033-6.589v0z"></path>
<path d="M34.132 12.473c-0.007-2.027-0.936-3.968-2.586-5.401s-3.884-2.241-6.217-2.246v0c-1.078-0.001-2.146 0.172-3.152 0.51l11.366 9.875c0.389-0.873 0.588-1.801 0.588-2.737v0z"></path>
</symbol>
<symbol id="icon-Logo-1" viewBox="0 0 49 28">
<path d="M23.386 2.769h-0.064c-0.098-0.006-0.196-0.008-0.294-0.011v0h-0.212c-0.185 0-0.374 0.005-0.562 0.014-0.014-0.001-0.028-0.001-0.042 0-1.701 0.096-3.367 0.521-4.908 1.252l-0.202 0.097v10.333l0.472-0.16c0.414-0.142 0.856-0.271 1.313-0.389 1.235-0.317 2.503-0.486 3.778-0.502v1.358c-0.169 0.001-0.333 0.006-0.497 0.014h-0.039c-0.981 0.054-1.954 0.203-2.907 0.446-1.206 0.302-2.369 0.755-3.463 1.349v-13.252c1.135-0.662 2.358-1.16 3.633-1.477 1.119-0.289 2.269-0.437 3.424-0.441h0.2c0.238 0.006 0.471 0.017 0.689 0.033 0.575 0.040 1.146 0.131 1.706 0.272v1.336c-0.544-0.127-1.096-0.21-1.653-0.249-0.011-0.001-0.023-0.002-0.034-0.003-0.115-0.010-0.23-0.020-0.338-0.020zM25.738 4.135c0.296 0.023 0.603 0.033 0.914 0.033 1.214-0.004 2.423-0.159 3.599-0.462 1.205-0.303 2.368-0.757 3.461-1.35v13.016c-1.136 0.662-2.359 1.159-3.634 1.477-1.119 0.288-2.269 0.436-3.424 0.44-0.875 0.007-1.748-0.096-2.597-0.306v-13.1c0.201 0.046 0.407 0.089 0.617 0.125 0.345 0.058 0.708 0.101 1.062 0.127zM32.362 4.236l-0.472 0.159c-0.434 0.146-0.872 0.277-1.313 0.393-1.282 0.329-2.6 0.498-3.923 0.503-0.308 0-0.591-0.008-0.865-0.026l-0.377-0.025v10.629l0.323 0.028c0.3 0.026 0.609 0.039 0.921 0.039 1.042-0.004 2.080-0.139 3.089-0.4 0.831-0.208 1.64-0.499 2.414-0.867l0.202-0.097v-10.336z"></path>
<path d="M16.677 21.099c-0.068-0.070-0.15-0.126-0.24-0.162s-0.188-0.054-0.285-0.050c-0.104-0.001-0.207 0.018-0.303 0.057-0.088 0.035-0.169 0.088-0.236 0.155s-0.119 0.148-0.152 0.237c-0.037 0.093-0.055 0.193-0.054 0.293v1.771c-0.004 0.125 0.020 0.249 0.070 0.363 0.042 0.091 0.102 0.172 0.177 0.237 0.071 0.060 0.154 0.103 0.243 0.126 0.086 0.024 0.175 0.037 0.264 0.037 0.099 0.001 0.196-0.020 0.286-0.062 0.088-0.039 0.169-0.094 0.236-0.164 0.066-0.069 0.118-0.149 0.155-0.237 0.038-0.089 0.057-0.185 0.057-0.282v-0.198h-0.463v0.158c0.001 0.054-0.008 0.108-0.027 0.158-0.015 0.038-0.038 0.072-0.067 0.1-0.029 0.023-0.061 0.040-0.097 0.051-0.031 0.010-0.064 0.016-0.097 0.017-0.041 0.005-0.083-0.001-0.121-0.018s-0.071-0.043-0.096-0.077c-0.044-0.071-0.065-0.154-0.061-0.237v-1.651c-0.003-0.092 0.017-0.182 0.057-0.265 0.024-0.037 0.058-0.067 0.098-0.086s0.085-0.026 0.129-0.021c0.040-0.001 0.080 0.007 0.116 0.024s0.067 0.043 0.091 0.075c0.052 0.068 0.079 0.152 0.077 0.237v0.153h0.458v-0.18c0.001-0.106-0.018-0.211-0.057-0.31-0.034-0.093-0.087-0.178-0.155-0.249v0z"></path>
<path d="M19.427 21.079c-0.148-0.125-0.334-0.193-0.527-0.195-0.094 0-0.188 0.017-0.276 0.050-0.090 0.032-0.173 0.081-0.244 0.145-0.077 0.069-0.138 0.153-0.179 0.248-0.047 0.108-0.070 0.225-0.067 0.343v1.698c-0.003 0.119 0.020 0.238 0.067 0.348 0.042 0.091 0.103 0.172 0.179 0.237 0.071 0.066 0.154 0.117 0.244 0.15 0.089 0.033 0.182 0.049 0.276 0.050s0.188-0.017 0.276-0.050c0.092-0.033 0.177-0.084 0.25-0.15s0.133-0.147 0.175-0.237c0.047-0.11 0.071-0.228 0.067-0.348v-1.698c0.002-0.118-0.021-0.235-0.067-0.343-0.041-0.094-0.101-0.178-0.175-0.248v0zM19.211 23.368c0.004 0.045-0.002 0.091-0.018 0.133s-0.041 0.081-0.074 0.112c-0.061 0.051-0.138 0.079-0.218 0.079s-0.157-0.028-0.218-0.079c-0.033-0.031-0.058-0.070-0.074-0.112s-0.022-0.088-0.018-0.133v-1.698c-0.004-0.045 0.002-0.091 0.018-0.133s0.041-0.081 0.074-0.112c0.061-0.051 0.138-0.079 0.218-0.079s0.157 0.028 0.218 0.079c0.033 0.031 0.058 0.070 0.074 0.112s0.022 0.088 0.018 0.133v1.698z"></path>
<path d="M23.038 24.126v-3.215h-0.445l-0.584 1.702h-0.008l-0.589-1.702h-0.44v3.215h0.459v-1.956h0.008l0.45 1.383h0.229l0.453-1.383h0.008v1.956h0.459z"></path>
<path d="M25.647 21.137c-0.071-0.079-0.16-0.14-0.26-0.176-0.107-0.035-0.22-0.052-0.333-0.050h-0.682v3.215h0.458v-1.256h0.236c0.143 0.006 0.285-0.024 0.413-0.088 0.104-0.058 0.191-0.143 0.251-0.246 0.053-0.086 0.089-0.181 0.105-0.28 0.018-0.121 0.026-0.243 0.025-0.366 0.004-0.154-0.011-0.309-0.045-0.459-0.031-0.111-0.089-0.213-0.169-0.296v0zM25.411 22.117c-0.002 0.058-0.016 0.115-0.043 0.167-0.026 0.049-0.068 0.089-0.118 0.113-0.068 0.030-0.142 0.044-0.216 0.040h-0.209v-1.093h0.236c0.071-0.004 0.142 0.010 0.207 0.040 0.047 0.027 0.085 0.069 0.107 0.119 0.025 0.056 0.039 0.117 0.040 0.179 0 0.068 0 0.139 0 0.214s0.005 0.152 0 0.221h-0.005z"></path>
<path d="M27.817 20.912h-0.375l-0.708 3.215h0.458l0.135-0.691h0.625l0.135 0.691h0.458l-0.726-3.215zM27.394 22.998l0.226-1.165h0.008l0.224 1.165h-0.458z"></path>
<path d="M30.777 22.848h-0.008l-0.692-1.937h-0.44v3.215h0.458v-1.933h0.009l0.7 1.933h0.431v-3.215h-0.458v1.937z"></path>
<path d="M33.576 20.912l-0.368 1.278h-0.009l-0.368-1.278h-0.485l0.629 1.856v1.359h0.458v-1.359l0.629-1.856h-0.485z"></path>
<path d="M15.4 25.034h0.221v0.619h0.15v-0.619h0.22v-0.127h-0.59v0.127z"></path>
<path d="M17.256 24.907l-0.289 0.746h0.159l0.061-0.17h0.297l0.064 0.17h0.163l-0.296-0.746h-0.159zM17.232 25.358l0.102-0.276 0.101 0.276h-0.203z"></path>
<path d="M19.090 25.378h0.172v0.096c-0.050 0.040-0.113 0.062-0.177 0.063-0.030 0.002-0.060-0.004-0.088-0.016s-0.052-0.031-0.071-0.055c-0.040-0.057-0.059-0.125-0.055-0.195 0-0.166 0.072-0.249 0.215-0.249 0.038-0.004 0.075 0.006 0.106 0.028s0.053 0.054 0.063 0.091l0.148-0.028c-0.032-0.146-0.137-0.22-0.316-0.22-0.096-0.003-0.189 0.032-0.261 0.096-0.038 0.037-0.067 0.082-0.085 0.132s-0.026 0.103-0.022 0.156c-0.004 0.102 0.030 0.202 0.096 0.28 0.037 0.038 0.081 0.067 0.13 0.086s0.101 0.027 0.154 0.023c0.117 0.003 0.23-0.039 0.316-0.119v-0.294h-0.324v0.126z"></path>
<path d="M20.964 24.907h-0.151v0.746h0.523v-0.127h-0.372v-0.619z"></path>
<path d="M22.548 24.907h-0.151v0.746h0.151v-0.746z"></path>
<path d="M24.097 25.406l-0.306-0.498h-0.146v0.746h0.14v-0.488l0.3 0.488h0.15v-0.746h-0.138v0.498z"></path>
<path d="M25.497 25.325h0.372v-0.127h-0.372v-0.164h0.4v-0.127h-0.551v0.746h0.567v-0.127h-0.416v-0.202z"></path>
<path d="M28.892 25.201h-0.294v-0.294h-0.15v0.746h0.15v-0.326h0.294v0.326h0.15v-0.746h-0.15v0.294z"></path>
<path d="M30.301 25.325h0.373v-0.127h-0.373v-0.164h0.401v-0.127h-0.551v0.746h0.565v-0.127h-0.416v-0.202z"></path>
<path d="M32.211 25.325c0.13-0.020 0.196-0.089 0.196-0.208 0.004-0.032-0.001-0.064-0.014-0.093s-0.033-0.054-0.059-0.073c-0.068-0.034-0.143-0.049-0.218-0.044h-0.316v0.746h0.15v-0.312h0.030c0.032-0.002 0.064 0.004 0.093 0.017 0.022 0.014 0.040 0.032 0.053 0.055l0.163 0.237h0.179l-0.091-0.146c-0.040-0.072-0.097-0.133-0.165-0.179v0zM32.060 25.222h-0.111v-0.187h0.118c0.051-0.004 0.103 0.002 0.152 0.018 0.011 0.010 0.019 0.022 0.025 0.035s0.008 0.028 0.008 0.043c-0.001 0.015-0.005 0.029-0.012 0.042s-0.017 0.024-0.028 0.033c-0.049 0.015-0.101 0.021-0.152 0.018v0z"></path>
<path d="M33.651 25.325h0.372v-0.127h-0.372v-0.164h0.401v-0.127h-0.552v0.746h0.567v-0.127h-0.416v-0.202z"></path>
</symbol>
<symbol id="icon-smartphone" viewBox="0 0 18 28">
<path d="M14.875 0h-12.25c-1.448 0-2.625 1.177-2.625 2.625v22.75c0 1.448 1.177 2.625 2.625 2.625h12.25c1.448 0 2.625-1.177 2.625-2.625v-22.75c0-1.448-1.177-2.625-2.625-2.625zM2.625 1.75h12.25c0.483 0 0.875 0.392 0.875 0.875v18.375h-14v-18.375c0-0.483 0.392-0.875 0.875-0.875zM14.875 26.25h-12.25c-0.483 0-0.875-0.392-0.875-0.875v-2.625h14v2.625c0 0.483-0.392 0.875-0.875 0.875z"></path>
<path d="M4.119 24.043c0.342 0.319 0.342 0.837 0 1.156s-0.896 0.319-1.237 0c-0.342-0.319-0.342-0.836 0-1.156s0.896-0.319 1.237 0z"></path>
</symbol>
<symbol id="icon-envelope" viewBox="0 0 37 28">
<path d="M33.833 0h-30.333c-1.93 0-3.5 1.57-3.5 3.5v21c0 1.93 1.57 3.5 3.5 3.5h30.333c1.93 0 3.5-1.57 3.5-3.5v-21c0-1.93-1.57-3.5-3.5-3.5zM33.833 2.333c0.158 0 0.309 0.033 0.447 0.090l-15.614 13.533-15.614-13.533c0.138-0.057 0.289-0.090 0.447-0.090h30.333zM33.833 25.667h-30.333c-0.644 0-1.167-0.523-1.167-1.167v-19.611l15.569 13.493c0.22 0.19 0.492 0.285 0.765 0.285s0.545-0.095 0.765-0.285l15.569-13.493v19.611c0 0.644-0.523 1.167-1.167 1.167z"></path>
</symbol>
<symbol id="icon-instagram" viewBox="0 0 24 28">
<path d="M16 14c0-2.203-1.797-4-4-4s-4 1.797-4 4 1.797 4 4 4 4-1.797 4-4zM18.156 14c0 3.406-2.75 6.156-6.156 6.156s-6.156-2.75-6.156-6.156 2.75-6.156 6.156-6.156 6.156 2.75 6.156 6.156zM19.844 7.594c0 0.797-0.641 1.437-1.437 1.437s-1.437-0.641-1.437-1.437 0.641-1.437 1.437-1.437 1.437 0.641 1.437 1.437zM12 4.156c-1.75 0-5.5-0.141-7.078 0.484-0.547 0.219-0.953 0.484-1.375 0.906s-0.688 0.828-0.906 1.375c-0.625 1.578-0.484 5.328-0.484 7.078s-0.141 5.5 0.484 7.078c0.219 0.547 0.484 0.953 0.906 1.375s0.828 0.688 1.375 0.906c1.578 0.625 5.328 0.484 7.078 0.484s5.5 0.141 7.078-0.484c0.547-0.219 0.953-0.484 1.375-0.906s0.688-0.828 0.906-1.375c0.625-1.578 0.484-5.328 0.484-7.078s0.141-5.5-0.484-7.078c-0.219-0.547-0.484-0.953-0.906-1.375s-0.828-0.688-1.375-0.906c-1.578-0.625-5.328-0.484-7.078-0.484zM24 14c0 1.656 0.016 3.297-0.078 4.953-0.094 1.922-0.531 3.625-1.937 5.031s-3.109 1.844-5.031 1.937c-1.656 0.094-3.297 0.078-4.953 0.078s-3.297 0.016-4.953-0.078c-1.922-0.094-3.625-0.531-5.031-1.937s-1.844-3.109-1.937-5.031c-0.094-1.656-0.078-3.297-0.078-4.953s-0.016-3.297 0.078-4.953c0.094-1.922 0.531-3.625 1.937-5.031s3.109-1.844 5.031-1.937c1.656-0.094 3.297-0.078 4.953-0.078s3.297-0.016 4.953 0.078c1.922 0.094 3.625 0.531 5.031 1.937s1.844 3.109 1.937 5.031c0.094 1.656 0.078 3.297 0.078 4.953z"></path>
</symbol>
<symbol id="icon-facebook" viewBox="0 0 32 32">
<path d="M19 6h5v-6h-5c-3.86 0-7 3.14-7 7v3h-4v6h4v16h6v-16h5l1-6h-6v-3c0-0.542 0.458-1 1-1z"></path>
</symbol>
<symbol id="icon-twitter" viewBox="0 0 32 32">
<path d="M32 7.075c-1.175 0.525-2.444 0.875-3.769 1.031 1.356-0.813 2.394-2.1 2.887-3.631-1.269 0.75-2.675 1.3-4.169 1.594-1.2-1.275-2.906-2.069-4.794-2.069-3.625 0-6.563 2.938-6.563 6.563 0 0.512 0.056 1.012 0.169 1.494-5.456-0.275-10.294-2.888-13.531-6.862-0.563 0.969-0.887 2.1-0.887 3.3 0 2.275 1.156 4.287 2.919 5.463-1.075-0.031-2.087-0.331-2.975-0.819 0 0.025 0 0.056 0 0.081 0 3.181 2.263 5.838 5.269 6.437-0.55 0.15-1.131 0.231-1.731 0.231-0.425 0-0.831-0.044-1.237-0.119 0.838 2.606 3.263 4.506 6.131 4.563-2.25 1.762-5.075 2.813-8.156 2.813-0.531 0-1.050-0.031-1.569-0.094 2.913 1.869 6.362 2.95 10.069 2.95 12.075 0 18.681-10.006 18.681-18.681 0-0.287-0.006-0.569-0.019-0.85 1.281-0.919 2.394-2.075 3.275-3.394z"></path>
</symbol>
<symbol id="icon-linkedin2" viewBox="0 0 32 32">
<path d="M12 12h5.535v2.837h0.079c0.77-1.381 2.655-2.837 5.464-2.837 5.842 0 6.922 3.637 6.922 8.367v9.633h-5.769v-8.54c0-2.037-0.042-4.657-3.001-4.657-3.005 0-3.463 2.218-3.463 4.509v8.688h-5.767v-18z"></path>
<path d="M2 12h6v18h-6v-18z"></path>
<path d="M8 7c0 1.657-1.343 3-3 3s-3-1.343-3-3c0-1.657 1.343-3 3-3s3 1.343 3 3z"></path>
</symbol>
</defs>
</svg>
